<svg width="308" height="308" viewBox="0 0 308 308" fill="none" xmlns="http://www.w3.org/2000/svg">
<path fill-rule="evenodd" clip-rule="evenodd" d="M139.577 0.472339C127.368 1.39928 118.857 3.16041 104.927 7.64274C96.5308 10.3447 82.0408 16.1238 80.9403 17.2097C80.0533 18.0848 82.5609 17.5885 84.6613 16.4731C85.7692 15.8846 87.1427 15.5389 87.7134 15.7045C88.2841 15.8702 90.5366 16.1731 92.7188 16.3773C95.9857 16.6833 97.1986 16.5243 99.5859 15.4769C101.181 14.777 102.485 13.9964 102.485 13.7416C102.485 13.1297 109.734 10.6332 111.489 10.641C112.245 10.644 112.862 10.9181 112.862 11.2493C112.862 11.5806 112.329 11.8516 111.678 11.8516C111.026 11.8516 110.294 12.1684 110.051 12.5563C109.751 13.037 109.949 13.1327 110.676 12.8575C111.262 12.6352 112.298 12.4539 112.978 12.4539C113.821 12.4539 114.103 12.1696 113.865 11.5577C113.615 10.915 113.87 10.7145 114.766 10.8494C116.624 11.1295 117.254 12.531 116.09 13.7995C115.161 14.8125 115.222 14.8505 117.189 14.4801C119.886 13.9723 120.112 13.7278 118.777 12.7635C118.169 12.3256 117.898 11.8299 118.174 11.6619C118.984 11.168 120.964 12.9057 120.477 13.6832C120.058 14.3524 120.983 14.2169 123.697 13.2104C124.117 13.0544 124.46 13.2435 124.46 13.6296C124.46 14.0157 124.23 14.1916 123.949 14.0205C123.669 13.8489 123.487 14.5108 123.546 15.4907C123.605 16.4707 123.423 17.2723 123.141 17.2723C122.86 17.2723 122.629 17.5747 122.629 17.9451C122.629 18.3577 123.159 18.4649 124.002 18.2222C127.078 17.3368 127.52 17.3928 128.653 18.8136C129.76 20.2037 129.912 20.2327 131.567 19.3708C133.241 18.4974 133.376 18.5318 134.928 20.2164C136.184 21.5812 136.722 21.8179 137.34 21.2789C137.873 20.8145 137.853 20.9512 137.281 21.6932C136.576 22.6093 136.316 22.6587 135.785 21.9793C134.952 20.9126 131.827 20.894 132.241 21.9582C132.408 22.3895 133.024 22.5774 133.64 22.3847C134.796 22.0221 135.876 23.932 135.16 25.0752C134.74 25.7443 136.991 28.1975 137.533 27.662C138.19 27.014 137.898 26.3069 136.974 26.3069C135.858 26.3069 135.799 25.6184 136.821 24.5319C137.431 23.8832 137.431 23.8061 136.821 24.1458C136.402 24.3795 136.058 24.2837 136.058 23.9332C136.058 22.8195 137.207 23.2448 137.997 24.6505C138.416 25.3956 138.701 26.2087 138.629 26.4574C138.517 26.8489 140.838 27.1585 143.23 27.0712C143.65 27.0555 143.993 27.329 143.993 27.6789C143.993 28.0282 144.159 28.1511 144.361 27.9517C144.564 27.7518 145.364 27.8265 146.141 28.118C147.23 28.5263 147.644 28.4143 147.954 27.6277C148.314 26.717 148.474 26.7502 149.456 27.9367C150.214 28.8522 151.022 29.1823 152.056 28.9973C153.038 28.8215 153.557 29.0076 153.557 29.5358C153.557 30.1224 152.751 30.2959 150.606 30.1718C147.434 29.9881 146.821 30.4784 149.029 31.4343C149.812 31.7734 150.489 32.6756 150.604 33.5345C150.799 35.0047 150.782 35.0119 149.859 33.8356C149.133 32.9087 148.911 32.843 148.896 33.5507C148.885 34.0567 149.692 35.177 150.689 36.0401C152.245 37.3874 152.655 37.4982 153.588 36.8261C154.185 36.3948 154.453 35.8244 154.184 35.5588C153.914 35.2926 153.41 35.4739 153.064 35.9612C152.57 36.655 152.498 36.5532 152.734 35.492C152.9 34.7469 152.786 34.1368 152.482 34.1368C152.178 34.1368 151.929 33.8657 151.929 33.5345C151.929 33.2032 152.411 32.9322 153 32.9322C153.69 32.9322 154.309 33.682 154.74 35.0402C155.287 36.7646 155.252 37.1483 154.549 37.1483C154.054 37.1483 153.873 37.4434 154.123 37.844C154.41 38.3011 154.265 38.3884 153.702 38.0987C153.23 37.8566 153.507 38.233 154.318 38.9353C155.438 39.905 155.906 40.0291 156.269 39.4503C156.531 39.0317 156.959 38.8992 157.219 39.1558C157.963 39.8906 156.054 40.7482 154.52 40.3688C153.048 40.0038 151.105 41.1385 151.666 42.0348C151.85 42.3287 151.71 42.569 151.354 42.569C150.999 42.569 150.708 42.84 150.708 43.1713C150.708 43.5026 151.395 43.7736 152.234 43.7736C153.229 43.7736 153.76 44.1109 153.76 44.7415C153.76 45.3721 154.093 45.5835 154.715 45.348C155.24 45.1493 154.621 46.1955 153.341 47.6729C151.089 50.2718 149.353 51.0446 148.571 49.7966C148.364 49.4654 147.592 49.216 146.857 49.2419C146.121 49.2678 145.853 49.4226 146.26 49.5858C146.839 49.8177 146.84 50.1369 146.266 51.044C145.201 52.7274 144.52 52.469 144.963 50.5495L145.346 48.8932L144.293 50.3002C143.617 51.203 142.827 51.6005 142.09 51.4102C141.43 51.2403 140.714 51.5084 140.414 52.0378C140.051 52.678 139.758 52.7533 139.464 52.2829C138.863 51.3235 137.889 51.4385 137.889 52.469C137.889 53.7531 142.566 53.5887 143.101 52.2859C143.438 51.4656 143.596 51.5349 144.051 52.7021C144.827 54.6885 143.727 56.4195 141.683 56.431C140.422 56.4382 140.241 56.5743 140.924 57.0008C142.486 57.9753 141.268 58.2228 139.462 57.2983C138.008 56.5539 137.847 56.5496 138.454 57.2706C139.028 57.9536 138.951 58.1855 138.074 58.4095C137.342 58.5969 137.524 58.7149 138.616 58.7613C139.52 58.7998 140.429 59.1022 140.636 59.4335C140.844 59.7647 141.546 60.0358 142.198 60.0358C142.85 60.0358 143.383 60.4423 143.383 60.9392C143.383 61.4361 143.092 61.8427 142.737 61.8427C142.381 61.8427 142.26 62.1137 142.467 62.445C142.675 62.7762 142.524 63.0473 142.133 63.0473C141.719 63.0473 141.585 62.6269 141.812 62.0414C142.227 60.9753 141.245 60.0478 139.721 60.0641C139.026 60.0719 139.091 60.2875 139.99 60.9585C141.099 61.786 141.026 61.8427 138.856 61.8427C137.082 61.8427 136.618 61.6379 136.877 60.9699C137.104 60.3863 136.924 60.208 136.332 60.4321C135.846 60.6164 135.448 61.1283 135.448 61.5704C135.448 62.7774 134.166 63.3177 133.548 62.3715C133.091 61.6722 132.916 61.6788 132.436 62.4161C131.813 63.3725 132.296 64.7494 132.93 63.8224C133.14 63.5153 133.998 63.4592 134.837 63.6984C136.08 64.0513 136.137 64.1435 135.142 64.1946C134.471 64.2296 133.098 64.9536 132.09 65.804C131.083 66.6544 130.666 67.1405 131.164 66.8839C132.476 66.2069 134.227 66.1696 134.227 66.8183C134.227 67.1248 133.677 67.5182 133.006 67.691C132.335 67.8645 131.785 68.2391 131.785 68.5234C131.785 68.8077 132.49 68.7764 133.351 68.4529C135.294 67.7241 138.688 67.6802 138.243 68.3903C138.063 68.6788 137.041 69.0871 135.973 69.298C133.53 69.7798 133.817 70.0466 137.279 70.5092C138.79 70.711 140.3 71.2392 140.636 71.6825C140.972 72.1258 141.556 72.3859 141.934 72.2601C142.313 72.1336 142.79 72.4631 142.995 72.9913C143.249 73.6412 143.125 73.8152 142.613 73.5303C142.023 73.2021 142.025 73.2882 142.62 73.9206C143.494 74.85 143.652 75.9305 142.842 75.4366C142.544 75.2553 141.964 75.5071 141.552 75.9967C141.14 76.4864 140.505 76.7051 140.14 76.4828C139.251 75.9407 136.668 75.8522 136.668 76.3642C136.668 77.0917 138.749 77.6645 141.247 77.6236L143.688 77.5838L141.247 78.0886C139.839 78.3801 138.56 78.3626 138.225 78.0482C137.906 77.7483 137.151 77.5025 136.546 77.5025C135.561 77.5025 135.167 76.8448 135.376 75.545C135.528 74.5952 134.267 75.1535 133.18 76.5177C132.555 77.3013 131.416 78.1391 130.648 78.3801C129.88 78.6204 129.372 78.9354 129.518 79.0799C129.665 79.2245 130.441 79.1028 131.242 78.8083C132.292 78.4234 133.384 78.5885 135.142 79.3973L137.584 80.5206L135.448 80.2038C134.273 80.0298 132.119 79.9069 130.662 79.9304C128.96 79.9575 128.154 79.7467 128.408 79.3413C128.626 78.9938 128.323 77.906 127.735 76.9243C126.925 75.5715 126.475 75.2957 125.876 75.7859C125.442 76.1413 124.652 76.2684 124.123 76.0678C123.391 75.7908 123.249 75.9793 123.529 76.8532C123.741 77.5091 123.56 78.1964 123.112 78.4517C122.678 78.6987 122.528 78.6782 122.776 78.4072C123.316 77.8187 122.158 76.2943 121.181 76.3069C120.802 76.3124 120.905 76.584 121.408 76.911C122.108 77.3658 121.964 77.4453 120.798 77.2477C119.958 77.1056 119.219 76.9695 119.153 76.9448C119.089 76.9201 119.836 76.0347 120.816 74.9771C121.795 73.9188 122.492 72.9503 122.364 72.8244C122.236 72.6985 120.939 73.4484 119.481 74.491C117.517 75.8956 116.402 76.3027 115.178 76.0618C113.995 75.8287 113.612 75.9546 113.826 76.5063C113.991 76.9297 113.429 77.6441 112.579 78.0934C111.728 78.5427 111.031 79.1516 111.031 79.4467C111.031 79.7419 110.786 79.8334 110.487 79.6515C109.777 79.2179 107.816 82.1764 108.301 82.9503C108.506 83.2774 108.952 83.3756 109.293 83.1678C109.633 82.9606 109.469 83.6333 108.93 84.6639C108.389 85.6938 107.749 86.537 107.505 86.5376C107.262 86.5376 107.024 87.2152 106.976 88.0434C106.927 88.871 107.15 89.5485 107.469 89.5485C107.789 89.5485 107.89 89.2914 107.693 88.9764C107.496 88.662 107.873 88.1199 108.532 87.7718C110.212 86.8852 110.613 86.9809 110.155 88.1596C109.782 89.1185 109.827 89.1185 110.901 88.1596C112.433 86.7906 113.313 86.8544 112.04 88.2421C111.483 88.8487 111.204 89.5178 111.418 89.7292C111.632 89.9406 111.306 90.867 110.695 91.7885C110.083 92.7094 109.697 93.4635 109.838 93.4635C109.978 93.4635 109.617 94.1339 109.036 94.953C107.694 96.8436 107.697 97.4375 109.047 96.9743C110.708 96.4045 111.642 94.9163 111.642 92.8395C111.642 90.926 112.612 89.6961 115.137 88.4072C116.322 87.8037 116.455 87.8519 116.171 88.7818C115.936 89.5552 116.128 89.4763 116.87 88.4945C117.434 87.7495 118.169 87.1393 118.505 87.1393C118.846 87.1393 118.78 87.5381 118.356 88.0428C117.938 88.5397 117.836 88.9505 118.129 88.9553C118.421 88.9607 118.252 89.2203 117.751 89.5329C117.25 89.8449 116.268 89.9593 115.569 89.7859C113.715 89.3269 112.409 91.032 113.552 92.4209C114.502 93.5767 114.612 94.8669 113.862 96.0498C113.581 96.4925 113.686 97.208 114.105 97.7061C115.134 98.9282 113.825 98.8445 112.572 97.6079C111.317 96.3696 110.881 96.8153 110.747 99.4739C110.638 101.619 111.389 102.341 112.026 100.704C112.217 100.213 113.523 99.2456 114.929 98.5529C116.473 97.7922 117.53 96.834 117.6 96.1317C117.664 95.4921 117.769 94.1453 117.833 93.1389C117.91 91.9162 118.118 91.5663 118.458 92.0848C118.863 92.7034 119.089 92.6775 119.568 91.9577C120.337 90.8007 120.337 90.3135 119.567 89.8437C119.226 89.6353 119.129 89.1739 119.352 88.818C119.575 88.462 119.884 87.058 120.039 85.6974C120.375 82.7504 120.367 82.76 122.323 82.657C123.872 82.5751 124.508 81.6337 123.285 81.232C122.924 81.1133 122.629 81.3097 122.629 81.6686C122.629 82.027 122.423 82.2673 122.171 82.2017C121.185 81.9445 118.966 83.0467 118.966 83.7936C118.966 84.2278 118.554 84.9199 118.051 85.3324C117.363 85.8956 117.135 85.904 117.135 85.3668C117.135 83.9574 118.424 82.3173 120.273 81.3741C123.471 79.7419 128.983 79.8991 126.036 81.5379C125.56 81.8029 125.061 82.9684 124.928 84.1278C124.737 85.7932 124.406 86.2503 123.352 86.3039C122.619 86.3419 122.019 86.1094 122.019 85.7878C122.019 85.4667 122.431 85.3595 122.934 85.5505C123.492 85.7613 123.85 85.5511 123.85 85.0126C123.85 84.5259 123.598 84.1278 123.289 84.1278C122.981 84.1278 122.225 83.967 121.611 83.7701C120.681 83.4719 120.646 83.5213 121.408 84.0616C122.121 84.5681 122.141 84.7139 121.495 84.7211C121.011 84.7265 120.813 85.1054 121.019 85.6336C121.212 86.1305 121.14 86.537 120.859 86.537C120.358 86.537 120.538 90.0954 121.066 90.6164C121.214 90.7622 120.802 91.4458 120.151 92.1354C118.721 93.649 118.569 94.8398 119.949 93.7092C120.832 92.9871 120.9 93.1467 120.61 95.2668C120.407 96.7521 120.623 98.2693 121.191 99.354C121.895 100.696 121.935 101.269 121.372 101.939C120.856 102.552 120.845 102.799 121.334 102.799C121.71 102.799 122.023 102.461 122.028 102.046C122.034 101.543 122.236 101.593 122.638 102.197C123.068 102.845 123.134 102.567 122.872 101.216C122.382 98.6963 123.648 97.9338 125.136 99.8515C125.751 100.645 126.125 101.708 125.969 102.216C125.688 103.123 128.699 104.858 130.412 104.777C130.832 104.756 131.175 104.952 131.175 105.211C131.175 105.95 129.456 106.412 129.124 105.762C128.959 105.441 128.895 105.524 128.982 105.946C129.069 106.368 129.392 106.718 129.699 106.723C130.008 106.729 130.603 106.948 131.022 107.21C131.457 107.483 131.785 107.415 131.785 107.051C131.785 105.962 132.928 106.349 133.651 107.682C134.149 108.6 134.155 109.134 133.673 109.609C133.19 110.086 133.006 110.068 133.006 109.545C133.006 108.588 131.352 108.613 131.003 109.575C130.852 109.989 130.986 110.82 131.3 111.421C131.783 112.347 132.026 112.393 132.896 111.722C133.826 111.004 133.84 111.033 133.045 112.03C132.284 112.986 132.284 113.202 133.045 113.677C133.595 114.021 133.651 114.228 133.195 114.234C132.795 114.239 132.298 113.972 132.09 113.641C131.52 112.731 130.564 112.919 130.564 113.942C130.564 114.439 130.29 114.845 129.954 114.845C129.618 114.845 129.344 114.603 129.344 114.307C129.344 114.012 128.95 113.62 128.468 113.438C127.886 113.218 127.622 113.485 127.68 114.236C127.727 114.856 128.013 115.213 128.315 115.029C128.63 114.837 128.661 115.303 128.388 116.125C128.126 116.912 127.958 118.198 128.016 118.984C128.105 120.194 127.98 120.297 127.199 119.657C126.531 119.11 126.455 118.689 126.924 118.131C127.28 117.708 127.342 117.221 127.061 117.05C126.78 116.879 126.179 117.568 125.724 118.581C125.27 119.594 124.387 120.555 123.763 120.716C123.139 120.877 122.633 121.451 122.638 121.993C122.644 122.558 122.838 122.72 123.096 122.374C123.343 122.043 124.175 121.245 124.944 120.601C126.064 119.664 126.268 119.624 125.965 120.404C125.757 120.939 125.196 121.525 124.718 121.706C124.24 121.887 123.85 122.441 123.85 122.938C123.85 123.504 123.499 123.709 122.912 123.486C122.395 123.291 121.394 123.639 120.686 124.259C119.406 125.379 119.403 125.378 120.135 123.88C120.847 122.425 120.819 122.431 119.308 124.064C118.449 124.993 117.726 126.213 117.703 126.774C117.668 127.611 117.563 127.578 117.124 126.59C116.698 125.631 116.608 125.816 116.687 127.494C116.742 128.653 117.14 129.96 117.571 130.397C118.503 131.343 118.594 132.699 117.758 133.208C117.38 133.438 117.425 133.99 117.881 134.71C118.276 135.336 118.867 135.685 119.192 135.487C119.534 135.278 119.62 135.549 119.394 136.128C119.18 136.679 119.287 137.13 119.632 137.13C119.977 137.13 120.091 137.398 119.886 137.726C119.673 138.067 119.918 138.168 120.461 137.963C121.127 137.71 121.408 137.97 121.408 138.837C121.408 139.515 121.683 140.238 122.019 140.443C122.354 140.648 122.629 140.512 122.629 140.142C122.629 139.771 122.878 139.62 123.182 139.806C123.486 139.991 123.581 140.727 123.391 141.441C123.135 142.407 123.252 142.615 123.846 142.252C124.873 141.626 126.263 143.43 125.877 144.888C125.564 146.071 121.953 146.474 122.088 145.311C122.246 143.945 121.997 143.153 121.408 143.153C120.453 143.153 120.693 145.329 121.742 146.188C122.442 146.762 122.498 147.077 121.958 147.406C121.445 147.719 121.694 148.308 122.797 149.397C123.66 150.249 124.532 151.464 124.737 152.099C124.941 152.733 125.443 153.241 125.853 153.227C128.266 153.147 128.964 153.406 128.245 154.115C127.059 155.286 127.407 156.082 128.629 154.992C130.03 153.74 130.976 153.683 129.942 154.913C129.517 155.417 129.334 155.993 129.535 156.192C130.1 156.749 131.909 155.884 131.51 155.248C131.31 154.928 132.328 154.719 133.869 154.763C136.28 154.831 136.515 154.96 135.992 155.923C135.669 156.519 135.166 157.006 134.876 157.006C134.585 157.006 134.075 157.774 133.743 158.713C132.794 161.4 125.933 163.944 125.204 161.88C124.997 161.294 125.213 161.148 125.903 161.409C126.453 161.617 126.902 161.553 126.902 161.268C126.902 160.983 126.455 160.58 125.909 160.373C124.839 159.968 123.064 161.058 123.545 161.825C123.705 162.081 123.427 162.625 122.927 163.035C122.428 163.444 122.019 164.071 122.019 164.428C122.019 164.851 122.274 164.825 122.751 164.354C124.17 162.954 125.197 163.499 124.768 165.424C124.196 167.997 124.836 168.63 126.757 167.389C127.65 166.813 128.178 166.667 127.929 167.065C127.681 167.463 128.025 168.954 128.693 170.377C129.362 171.802 129.878 173.852 129.839 174.933C129.799 176.014 129.947 177.076 130.166 177.292C130.385 177.509 130.564 177.082 130.564 176.345C130.564 175.605 130.838 175.171 131.175 175.377C131.51 175.581 131.785 175.416 131.785 175.01C131.785 174.604 131.944 174.43 132.14 174.622C132.335 174.815 132.191 175.531 131.821 176.214C131.316 177.144 131.341 177.763 131.918 178.675C132.527 179.638 132.533 180.14 131.944 181.071C131.517 181.746 131.438 182.392 131.759 182.588C132.757 183.197 132.154 185.583 130.654 186.959C129.849 187.698 128.943 188.153 128.641 187.969C128.339 187.785 128.132 187.857 128.18 188.131C128.394 189.344 128.055 189.623 127.207 188.928C126.703 188.516 126.291 187.23 126.291 186.07C126.291 184.265 126.16 184.07 125.376 184.712C124.693 185.271 124.46 185.281 124.46 184.75C124.46 184.359 124.167 184.218 123.808 184.436C123.449 184.655 123.285 185.166 123.443 185.572C123.943 186.858 120.228 185.938 118.279 184.293C117.732 183.832 116.543 183.322 115.636 183.159C113.843 182.839 113.02 182.298 110.346 179.679C109.316 178.671 108.209 178.102 107.673 178.305C107.162 178.498 106.758 178.321 106.758 177.901C106.758 177.488 105.955 176.455 104.973 175.604C102.88 173.793 101.802 169.846 103.168 169C103.632 168.713 104.561 168.619 105.232 168.793C106.122 169.022 105.902 168.628 104.42 167.339C102.39 165.573 102.606 164.265 104.749 165.347C105.351 165.651 106.667 166.147 107.674 166.45C108.952 166.835 109.447 167.327 109.313 168.08C109.171 168.879 109.408 169.07 110.229 168.818C111.54 168.415 112.498 168.956 113.041 170.408C113.257 170.987 113.751 171.462 114.139 171.462C114.668 171.462 114.67 171.256 114.144 170.631C113.588 169.969 113.752 169.743 114.954 169.516C116.416 169.24 116.436 169.282 115.603 170.873C115.129 171.775 114.896 172.666 115.084 172.851C115.272 173.037 115.237 173.491 115.005 173.861C114.733 174.295 114.07 173.944 113.137 172.873C112.342 171.96 111.552 171.349 111.382 171.516C111.213 171.684 111.731 172.519 112.533 173.373C113.592 174.5 114.417 174.845 115.541 174.633C116.394 174.472 117.068 174.168 117.041 173.955C117.013 173.743 117.023 173.095 117.063 172.516C117.165 171.027 118.356 171.198 118.356 172.702C118.356 173.388 118.633 173.773 118.976 173.564C119.317 173.355 119.439 172.933 119.245 172.625C119.053 172.316 119.217 172.064 119.612 172.064C120.013 172.064 120.198 172.562 120.03 173.192C119.801 174.06 119.996 174.252 120.875 174.026C121.504 173.863 122.019 174.033 122.019 174.403C122.019 174.773 121.812 175.043 121.561 175.004C120.143 174.783 120.074 175.227 121.408 175.979C122.803 176.765 122.826 176.841 121.677 176.861C120.986 176.873 119.888 176.484 119.236 175.998C117.704 174.855 117.085 174.846 117.523 175.975C117.716 176.47 118.138 176.714 118.461 176.517C118.784 176.32 119.191 176.697 119.366 177.354C119.582 178.17 120.046 178.455 120.83 178.253C122.487 177.825 123.488 176.502 122.576 175.946C122.073 175.64 122.297 175.15 123.309 174.342C124.11 173.703 124.491 173.063 124.155 172.92C122.034 172.02 119.392 170.031 120.029 169.815C121.489 169.32 119.06 167.694 117.455 168.092C116.439 168.343 115.805 168.15 115.421 167.473C115.114 166.932 114.704 166.742 114.51 167.052C114.316 167.361 113.156 167.499 111.932 167.358C110.11 167.148 109.761 166.896 110.006 165.968C110.172 165.345 110.058 164.986 109.754 165.172C109.449 165.358 109.2 165.177 109.2 164.771C109.2 164.365 109.016 164.215 108.791 164.437C108.566 164.659 107.773 164.447 107.029 163.967C105.429 162.932 104.624 163.42 105.685 164.781C106.246 165.501 106.119 165.477 105.174 164.686C103.532 163.311 102.954 163.356 101.952 164.939C101.177 166.163 101.086 166.178 100.513 165.168C100.1 164.441 100.107 163.965 100.534 163.705C100.882 163.493 101.257 162.922 101.368 162.436C101.479 161.95 102.175 161.062 102.915 160.462C103.67 159.85 104.11 158.984 103.919 158.49C103.439 157.256 102.875 157.391 102.172 158.908C101.841 159.623 100.952 160.605 100.196 161.09C98.4744 162.196 98.4145 161.645 100.09 160.105C101.558 158.755 100.898 158.042 98.1069 157.96C96.1444 157.903 95.8813 158.466 97.4495 159.367C99.4577 160.521 97.6442 160.02 95.1256 158.725C92.297 157.27 91.6237 156.2 92.7182 154.899C93.129 154.411 93.353 153.07 93.2169 151.918C93.0808 150.767 93.0869 149.941 93.2303 150.083C93.3738 150.224 94.0177 149.679 94.6617 148.872C95.5902 147.707 95.6952 147.151 95.1696 146.182C94.8052 145.51 94.0861 144.96 93.5715 144.96C92.8805 144.96 92.7499 144.608 93.071 143.61C93.4476 142.438 93.3792 142.363 92.5558 143.037C91.9271 143.552 91.4748 143.604 91.2166 143.191C90.6061 142.217 88.1291 142.864 88.2243 143.973C88.2701 144.509 88.0406 144.784 87.7134 144.584C87.3862 144.385 87.2544 143.711 87.4198 143.085C87.7366 141.891 87.3447 141.71 85.7491 142.314C84.5442 142.77 84.4904 144.118 85.6594 144.561C86.8509 145.012 86.7032 148.411 85.4714 148.878C84.6351 149.194 84.6272 149.319 85.4109 149.85C86.0934 150.314 85.9798 150.368 84.936 150.079C84.1645 149.865 83.5626 149.964 83.5626 150.305C83.5626 151.365 84.5185 151.548 86.0482 150.781C88.6272 149.488 89.9139 150.185 89.7571 152.79C89.718 153.433 89.8022 153.47 90.0489 152.915C90.3156 152.319 90.5946 152.301 91.252 152.839C92.4453 153.816 92.322 155.198 91.0402 155.208C90.119 155.217 90.0983 155.305 90.8876 155.85C91.8142 156.491 91.3081 156.428 87.8996 155.48C87.2635 155.303 86.3088 155.587 85.7778 156.111C85.0044 156.874 84.5515 156.926 83.5034 156.373C82.4541 155.819 82.2923 155.838 82.6873 156.468C83.8342 158.3 85.0447 159.33 85.6551 158.995C86.1086 158.747 86.1062 158.855 85.6484 159.347C84.991 160.053 82.7385 159.643 83.2025 158.901C83.3361 158.687 82.7849 158.473 81.978 158.425C80.209 158.321 80.0326 159.185 81.7155 159.712C82.3778 159.919 83.2751 160.818 83.7091 161.71C84.1431 162.601 84.9061 163.367 85.4042 163.412C85.9017 163.456 86.6159 163.524 86.9901 163.562C88.2213 163.688 90.9077 166.124 90.5121 166.756C90.2643 167.151 89.9445 167.086 89.6258 166.577C89.3511 166.14 88.0858 165.716 86.813 165.635C85.5403 165.555 84.22 165.115 83.8782 164.657C82.8857 163.328 79.2384 161.943 75.9025 161.63C74.2074 161.47 71.7353 160.867 70.4088 160.289C69.0824 159.711 67.6638 159.169 67.2561 159.082C66.8483 158.996 65.7496 158.408 64.8144 157.775C63.8793 157.142 62.4314 156.587 61.5969 156.541C60.7625 156.495 59.9842 156.175 59.867 155.828C59.7504 155.482 58.8373 155.199 57.8386 155.199C56.7869 155.199 56.1801 155.452 56.3981 155.8C56.6483 156.199 56.2375 156.199 55.1736 155.8C53.1879 155.055 53.042 155.055 53.042 155.802C53.042 156.133 53.299 156.404 53.6127 156.404C53.9265 156.404 54.9471 156.691 55.881 157.041C57.108 157.501 57.3564 157.813 56.7777 158.166C56.2119 158.511 56.5592 158.855 57.9577 159.337C59.0472 159.711 60.4469 160.018 61.0683 160.018C62.4216 160.018 62.5724 161.118 61.2862 161.605C59.7932 162.171 60.8119 162.892 62.6413 162.565L64.3346 162.262L62.9612 163.738C61.5914 165.211 60.9731 166.888 62.2727 165.606C62.6493 165.234 63.336 165.074 63.7987 165.249C64.3072 165.442 64.6398 165.168 64.6398 164.559C64.6398 163.824 64.9719 163.655 65.8607 163.933C66.5608 164.152 67.0815 164.041 67.0815 163.672C67.0815 163.318 67.4557 163.029 67.9123 163.029C68.4787 163.029 68.6466 163.529 68.439 164.601C68.1534 166.075 68.2205 166.126 69.5317 165.434C70.7781 164.776 70.8831 164.814 70.5053 165.787C70.0975 166.833 70.1287 166.834 71.2842 165.802C72.6588 164.575 75.3172 165.002 74.7867 166.365C74.57 166.924 74.7837 167.065 75.4594 166.809C76.1882 166.533 76.3506 166.689 76.0741 167.4C75.7811 168.153 76.0619 168.342 77.3413 168.257C78.4437 168.184 78.9845 168.446 78.9845 169.052C78.9845 170.233 80.9452 171.657 82.0146 171.252C82.9125 170.912 83.7909 172.417 83.2232 173.323C82.8716 173.884 84.0302 174.089 86.4621 173.894C88.0656 173.766 88.2982 175.325 86.9394 177.095C86.3461 177.868 86.2478 178.64 86.6195 179.605C87.3758 181.569 87.1414 183.438 86.1843 183.076C84.9012 182.59 85.2815 183.751 86.6904 184.619C87.971 185.408 87.9637 185.431 86.0647 186.571C83.5766 188.064 83.5272 188.049 83.9594 185.917C84.4685 183.406 83.8104 183.662 82.4114 186.519C81.7625 187.844 81.4976 188.928 81.8229 188.928C82.1477 188.928 82.2411 189.204 82.0305 189.54C81.8193 189.877 81.3914 189.997 81.0788 189.806C80.3024 189.332 80.3573 187.121 81.1448 187.121C81.511 187.121 81.4463 186.766 80.9922 186.281C80.5594 185.819 79.999 185.564 79.7475 185.714C79.496 185.865 79.2897 185.689 79.2897 185.324C79.2897 184.959 79.6328 184.728 80.0527 184.812C81.2327 185.048 83.5626 183.568 83.5626 182.583C83.5626 182.098 83.2879 181.701 82.9522 181.701C82.6165 181.701 82.3418 181.972 82.3418 182.303C82.3418 182.634 81.9133 182.905 81.3901 182.905C80.8261 182.905 80.6161 182.622 80.8737 182.21C81.1441 181.779 81.0416 181.678 80.6052 181.945C80.2175 182.181 79.9001 182.764 79.9001 183.242C79.9001 183.72 79.4881 184.11 78.9845 184.11C78.4809 184.11 78.0689 184.619 78.0689 185.241C78.0689 185.863 77.7167 186.66 77.2864 187.012C76.6955 187.497 76.3164 187.235 75.7371 185.944C74.9063 184.092 73.6227 184.05 70.8966 185.784C69.3595 186.762 69.0189 188.044 70.4387 187.506C71.0089 187.29 71.3544 187.51 71.3544 188.088C71.3544 189.558 73.4646 188.796 73.6886 187.245L73.8864 185.876L75.3568 187.251C76.4422 188.268 76.8298 189.278 76.8377 191.113C76.8499 193.98 75.4765 195.686 74.2282 194.356C73.6501 193.739 73.6556 193.662 74.2538 193.995C74.6738 194.229 75.0168 194.133 75.0168 193.782C75.0168 192.99 71.9526 192.95 69.9095 193.717C68.9847 194.063 67.6339 194.076 66.4772 193.749C64.3096 193.135 62.8086 193.508 62.8086 194.658C62.8086 195.144 63.2713 195.322 64.0294 195.126C65.821 194.663 65.5182 195.842 63.6272 196.693C62.3306 197.275 61.8905 197.264 61.4413 196.638C61.0695 196.121 61.003 196.417 61.2447 197.511C61.6268 199.239 61.0915 199.641 59.9317 198.497C59.0503 197.627 57.8777 198.345 58.3202 199.483C58.5235 200.005 58.2024 200.524 57.531 200.76C56.9084 200.979 55.9872 201.498 55.4837 201.915C54.1951 202.981 52.0916 203.253 52.279 202.33C52.4621 201.427 51.4415 201.323 50.8995 202.189C50.6883 202.525 50.2604 202.645 49.9478 202.454C49.6353 202.264 49.3795 202.546 49.3795 203.082C49.3795 203.618 49.1305 203.905 48.8259 203.72C48.5219 203.534 48.3986 203.856 48.5518 204.437C48.7795 205.295 48.4554 205.477 46.8164 205.412C43.3908 205.277 43.2669 205.229 42.6034 203.792C42.1089 202.722 41.4826 202.404 39.9322 202.437C38.0942 202.476 37.9685 202.592 38.5771 203.685C39.6471 205.606 39.6874 207.01 38.6998 207.985C38.195 208.483 37.7817 209.249 37.7817 209.686C37.7817 210.741 36.1116 211.345 35.7332 210.427C35.5476 209.978 35.4219 210.047 35.3974 210.611C35.3346 212.08 36.1519 212.9 38.093 213.315C39.8711 213.695 39.8864 213.678 38.6973 212.679C37.6132 211.769 37.6022 211.697 38.5948 212.036C39.2095 212.246 39.818 212.418 39.9468 212.418C40.075 212.418 40.4712 212.954 40.8264 213.609C41.3648 214.602 41.3062 214.738 40.4724 214.421C39.6606 214.114 39.555 214.301 39.9133 215.414C40.1995 216.304 40.1318 216.649 39.7204 216.399C39.3718 216.186 38.9043 216.304 38.6808 216.661C38.419 217.078 37.9734 216.921 37.4258 216.219C36.6177 215.181 36.5847 215.186 36.7458 216.333C37.012 218.236 38.1547 219.91 38.6491 219.12C39.4933 217.773 40.1892 218.451 39.5806 220.031C39.2436 220.905 39.1136 221.763 39.2906 221.937C39.4677 222.113 39.6129 221.939 39.6129 221.553C39.6129 221.167 39.8876 220.85 40.2234 220.85C41.0028 220.85 41.0254 223.674 40.2502 224.147C39.4139 224.657 40.2234 226.385 41.9191 227.708C42.8384 228.426 43.2644 229.258 43.0764 229.968C42.9128 230.585 43.0142 230.948 43.3017 230.772C43.9847 230.356 45.4015 232.909 45.2025 234.197C45.0364 235.275 47.4171 237.264 48.2582 236.75C49.1775 236.19 48.7935 235.334 47.7931 235.713C46.9568 236.029 46.9257 235.91 47.5782 234.88C48.2784 233.773 48.4224 233.754 49.3722 234.642C49.9399 235.172 50.2134 235.878 49.9802 236.209C49.1866 237.335 48.9168 239.386 49.4546 240.208C49.8996 240.889 50.0913 240.874 50.5912 240.124C51.1094 239.345 51.1931 239.36 51.2016 240.239C51.2065 240.799 50.9172 241.436 50.5588 241.655C50.1999 241.874 50.0528 242.428 50.2317 242.888C50.4105 243.347 50.2231 243.659 49.8154 243.58C49.3948 243.499 49.1421 243.958 49.2312 244.641C49.3173 245.304 49.4442 246.32 49.5132 246.9C49.5828 247.48 49.8557 247.954 50.12 247.954C50.3843 247.954 50.6004 248.465 50.6004 249.089C50.6004 250.097 50.4026 250.047 48.8314 248.637C47.7687 247.684 47.2675 246.802 47.5758 246.428C48.2967 245.554 47.5056 244.523 45.5522 243.79C43.6923 243.093 43.2473 243.914 44.954 244.894C45.725 245.337 45.7805 245.513 45.1549 245.527C44.6775 245.536 43.7375 245.071 43.066 244.491C42.394 243.911 42.0454 243.776 42.2908 244.189C42.5631 244.649 42.3903 244.942 41.847 244.942C41.3575 244.942 40.3485 243.79 39.605 242.383C38.8615 240.974 37.5974 239.176 36.7965 238.386C35.9956 237.595 35.3401 236.698 35.3401 236.393C35.3401 236.087 35.0519 236.013 34.6997 236.227C34.3481 236.441 34.2792 236.945 34.5471 237.345C34.8157 237.745 34.5789 237.586 34.0216 236.99C33.4643 236.395 32.8331 235.908 32.6188 235.908C32.4052 235.908 31.047 234.756 29.6004 233.348C28.1537 231.94 26.5874 230.861 26.1192 230.951C25.651 231.04 24.5126 230.419 23.5896 229.571C22.6661 228.723 21.911 228.295 21.911 228.621C21.911 228.945 22.1857 229.379 22.5214 229.584C23.2338 230.018 23.3424 231.092 22.674 231.085C21.8335 231.076 19.4724 226.361 19.838 225.421C20.3502 224.105 17.8048 220.312 16.1316 219.898C15.1122 219.645 14.8101 219.232 15.0323 218.393C15.2343 217.63 15.0255 217.236 14.4182 217.236C13.9122 217.236 13.3249 216.559 13.1143 215.731C12.9038 214.903 12.4325 214.225 12.0675 214.225C11.6719 214.225 11.584 214.651 11.849 215.279C13.3274 218.777 13.5703 219.644 13.1784 220.031C12.9385 220.267 12.3556 219.94 11.8825 219.302C11.4101 218.664 10.8479 218.315 10.633 218.527C9.9811 219.17 16.6779 231.318 22.1503 239.417C36.9515 261.325 56.7033 278.75 80.5362 290.925C96.9593 299.315 114.047 304.52 133.616 307.093C143.184 308.351 164.662 308.031 174.819 306.478C201.227 302.442 225.029 292.557 246.413 276.747C253.686 271.371 267.1 258.567 273.107 251.267C287.399 233.899 298.167 212.517 303.59 190.735C306.832 177.713 307.869 168.816 307.869 153.995C307.869 128.575 302.973 107.833 291.673 85.377C283.421 68.9787 273.867 56.1846 260.089 43.0792C227.716 12.2877 184.628 -2.94632 139.577 0.472339ZM128.123 7.50421C126.127 7.78669 126.087 7.83367 127.512 8.21854C128.352 8.44561 129.794 8.42573 130.717 8.17518C131.981 7.83186 132.396 7.93245 132.396 8.58113C132.396 9.05454 132.646 9.44242 132.952 9.44242C133.258 9.44242 133.439 8.96841 133.355 8.38839C133.19 7.25124 131.694 6.99828 128.123 7.50421ZM136.281 7.76742C136.118 8.0258 136.81 8.23781 137.817 8.23781C138.824 8.23781 139.822 7.96076 140.034 7.62286C140.271 7.24402 139.681 7.06272 138.497 7.15186C137.441 7.23137 136.443 7.50843 136.281 7.76742ZM122.027 9.69177C122.423 10.0821 122.835 10.0821 123.231 9.69177C123.626 9.30208 123.419 9.0985 122.629 9.0985C121.838 9.0985 121.632 9.30208 122.027 9.69177ZM128.123 9.44242C126.666 9.90318 126.685 9.92727 128.544 9.98449C129.616 10.0176 130.662 9.77368 130.87 9.44242C131.304 8.74977 130.315 8.74977 128.123 9.44242ZM114.083 13.3574C113.244 13.8308 112.848 14.2277 113.204 14.2397C113.559 14.2512 114.383 13.8627 115.035 13.3767C116.542 12.2516 116.06 12.2419 114.083 13.3574ZM88.3318 15.2745C88.7719 15.4486 89.2987 15.4269 89.5013 15.2269C89.704 15.027 89.3438 14.8848 88.7004 14.9107C87.9893 14.9396 87.8447 15.0824 88.3318 15.2745ZM91.8032 15.4654C92.0107 15.7967 92.3013 16.0677 92.4496 16.0677C92.5979 16.0677 92.7188 15.7967 92.7188 15.4654C92.7188 15.1342 92.4276 14.8631 92.0724 14.8631C91.7171 14.8631 91.5956 15.1342 91.8032 15.4654ZM109.81 16.0677C108.635 16.7026 108.033 17.2332 108.473 17.247C108.912 17.2609 109.102 17.5434 108.895 17.8746C108.687 18.2059 108.838 18.4769 109.229 18.4769C109.62 18.4769 109.793 18.0969 109.613 17.6331C109.415 17.1242 109.813 16.6098 110.615 16.3388C111.348 16.0912 112.496 15.6853 113.168 15.4359L114.388 14.983L113.168 14.9487C112.496 14.9294 110.985 15.4329 109.81 16.0677ZM118.966 17.2723C118.966 17.6036 119.258 17.8746 119.613 17.8746C119.968 17.8746 120.09 17.6036 119.882 17.2723C119.675 16.9411 119.384 16.67 119.236 16.67C119.087 16.67 118.966 16.9411 118.966 17.2723ZM120.798 17.8746C120.798 18.2059 121.072 18.4769 121.408 18.4769C121.744 18.4769 122.019 18.2059 122.019 17.8746C122.019 17.5434 121.744 17.2723 121.408 17.2723C121.072 17.2723 120.798 17.5434 120.798 17.8746ZM154.37 17.8746C154.37 18.2059 154.629 18.4769 154.945 18.4769C155.261 18.4769 155.689 18.2059 155.896 17.8746C156.104 17.5434 155.845 17.2723 155.322 17.2723C154.799 17.2723 154.37 17.5434 154.37 17.8746ZM78.6793 18.4769C78.1293 18.8275 78.0536 19.0642 78.4907 19.0702C78.8905 19.075 79.3874 18.8082 79.5949 18.4769C80.0631 17.7289 79.8519 17.7289 78.6793 18.4769ZM121.128 20.2441C120.934 20.5531 121.596 20.7832 122.597 20.7548C123.599 20.7271 124.274 20.4742 124.098 20.1929C123.667 19.5051 121.568 19.5412 121.128 20.2441ZM125.594 20.2176C126.171 20.579 126.217 20.8602 125.746 21.1475C125.375 21.374 125.071 21.8727 125.071 22.2552C125.071 22.6666 125.475 22.5527 126.058 21.9763C127.082 20.9663 126.762 19.6749 125.492 19.6906C125.006 19.6972 125.039 19.8713 125.594 20.2176ZM99.7733 22.2251C99.2508 22.9611 98.8229 23.3345 98.8229 23.0544C98.8229 22.7744 98.4109 22.8828 97.9073 23.2954C97.4037 23.7079 96.9917 23.8669 96.9917 23.6495C96.9917 23.4315 96.1401 24.2109 95.0988 25.3805C94.058 26.5502 92.988 27.3747 92.7212 27.2115C92.1767 26.8797 91.2977 28.7191 91.7751 29.1907C91.9436 29.3563 93.3921 28.9877 94.9944 28.3716C96.5961 27.7548 98.0904 27.2416 98.3144 27.2302C98.5378 27.2194 98.9273 27.0073 99.1788 26.7586C99.4309 26.5098 100.209 26.2984 100.909 26.2876C101.608 26.2773 102.701 25.8792 103.338 25.4034C103.975 24.9276 104.773 24.7072 105.111 24.9137C105.461 25.1264 105.537 24.9872 105.29 24.5915C104.984 24.1036 104.51 24.0759 103.709 24.4982C102.021 25.3896 101.811 25.2601 102.236 23.5899C102.56 22.3148 102.45 22.1419 101.532 22.4895C100.686 22.8093 100.53 22.6762 100.834 21.8944C101.381 20.4874 100.9 20.6374 99.7733 22.2251ZM119.577 22.6744C119.577 22.9948 119.989 23.1014 120.493 22.9111C120.996 22.7202 121.408 22.4576 121.408 22.3275C121.408 22.1974 120.996 22.0908 120.493 22.0908C119.989 22.0908 119.577 22.3534 119.577 22.6744ZM123.239 23.2954C123.239 23.6266 123.531 23.8977 123.886 23.8977C124.241 23.8977 124.363 23.6266 124.155 23.2954C123.947 22.9641 123.657 22.6931 123.509 22.6931C123.36 22.6931 123.239 22.9641 123.239 23.2954ZM65.0232 26.2948C62.4625 27.9445 60.3669 29.4509 60.3669 29.643C60.3669 30.0496 60.0855 30.2146 65.5555 26.5996C70.1549 23.5592 70.5108 23.2954 70.0084 23.2954C69.8277 23.2954 67.5845 24.6451 65.0232 26.2948ZM103.361 27.5759C103.079 28.0246 103.367 28.1102 104.24 27.8367C105.891 27.3199 105.928 28.3306 104.317 29.9207C102.735 31.4812 103.705 31.4885 105.526 29.9297C106.681 28.9413 106.791 28.5763 106.156 27.8217C105.253 26.749 103.95 26.6339 103.361 27.5759ZM109.505 28.1138C109.713 28.445 110.003 28.7161 110.152 28.7161C110.3 28.7161 110.421 28.445 110.421 28.1138C110.421 27.7825 110.13 27.5115 109.774 27.5115C109.419 27.5115 109.298 27.7825 109.505 28.1138ZM97.8713 31.4596C96.7542 32.3431 96.7738 32.3552 98.2125 31.6794C100.081 30.8012 100.427 30.523 99.6518 30.523C99.3241 30.523 98.5232 30.9446 97.8713 31.4596ZM54.3404 34.1211C52.3339 35.769 50.4911 37.438 50.2451 37.8307C49.8898 38.3975 52.6715 36.2063 58.4851 31.3385C58.6248 31.221 58.5705 31.1253 58.3642 31.1253C58.1573 31.1253 56.3468 32.4732 54.3404 34.1211ZM143.22 32.4046C143.634 32.8165 144.127 33.0014 144.314 32.8159C144.502 32.6304 144.164 32.2937 143.562 32.0673C142.692 31.7408 142.622 31.8095 143.22 32.4046ZM90.94 33.7736C90.5506 34.2362 89.7107 34.4801 89.0734 34.3157C88.4136 34.1452 87.3588 34.5277 86.6226 35.2047C85.4872 36.2485 85.4506 36.4388 86.3217 36.7682C86.8674 36.9748 87.7745 36.8989 88.3372 36.599C89.4708 35.9961 92.518 32.9322 91.9845 32.9322C91.7989 32.9322 91.3289 33.311 90.94 33.7736ZM102.028 34.1555C101.272 34.4554 100.654 34.98 100.654 35.3221C100.654 36.3846 102.153 36.0045 102.954 34.7391C103.374 34.0766 103.646 33.5519 103.558 33.5724C103.472 33.5935 102.783 33.8561 102.028 34.1555ZM159.864 34.1386C159.864 34.4205 160.688 35.0565 161.695 35.5522C162.703 36.0479 163.527 36.2232 163.527 35.9419C163.527 35.66 162.703 35.024 161.695 34.5283C160.688 34.0326 159.864 33.8573 159.864 34.1386ZM84.7834 34.7391C84.7834 35.0704 85.0581 35.3414 85.3938 35.3414C85.7296 35.3414 86.0042 35.0704 86.0042 34.7391C86.0042 34.4078 85.7296 34.1368 85.3938 34.1368C85.0581 34.1368 84.7834 34.4078 84.7834 34.7391ZM94.3413 35.6118C94.1142 36.1955 94.2949 36.3737 94.8864 36.1497C95.3729 35.9654 95.7708 36.131 95.7708 36.5171C95.7708 36.9032 96.0333 37.0592 96.3544 36.8634C97.14 36.3846 96.4508 34.7391 95.4656 34.7391C95.0341 34.7391 94.528 35.1318 94.3413 35.6118ZM83.0431 36.3454C82.5896 36.8303 82.3448 37.3519 82.4987 37.5037C82.6525 37.6554 83.131 37.3603 83.5626 36.8471C84.5814 35.6359 84.1217 35.1914 83.0431 36.3454ZM150.708 38.9907C150.708 39.3413 150.983 39.4611 151.318 39.2563C151.654 39.0516 151.929 38.7649 151.929 38.6185C151.929 38.4722 151.654 38.3529 151.318 38.3529C150.983 38.3529 150.708 38.6402 150.708 38.9907ZM168.799 39.8587C168.556 40.4844 168.841 40.7621 169.725 40.7621C170.79 40.7621 170.875 40.6127 170.241 39.8587C169.823 39.3618 169.407 38.9552 169.316 38.9552C169.225 38.9552 168.993 39.3618 168.799 39.8587ZM164.754 41.6583C164.23 42.2805 163.741 42.3919 163.26 41.9986C162.74 41.5722 162.53 41.9788 162.486 43.4972C162.431 45.4083 162.573 45.5805 164.197 45.5805C166.32 45.5805 166.463 46.2979 164.595 47.5838C163.285 48.4854 163.278 48.5306 164.448 48.5607C165.123 48.5776 166.021 48.0445 166.444 47.3754C167.098 46.3424 167.029 45.9624 165.981 44.8529C164.576 43.3652 164.395 42.1914 165.51 41.7981C165.93 41.6505 166.107 41.3499 165.903 41.1313C165.698 40.9121 165.181 41.1494 164.754 41.6583ZM42.4837 44.2506C41.2403 45.507 40.2234 46.7779 40.2234 47.0748C40.2234 47.3718 40.8185 46.9538 41.5461 46.1461C42.2731 45.3378 43.4201 44.0669 44.094 43.3219C46.0967 41.1072 44.9266 41.7824 42.4837 44.2506ZM148.847 44.7126C148.262 45.4077 148.314 45.5805 149.107 45.5805C149.652 45.5805 150.098 45.8829 150.098 46.2533C150.098 46.6454 149.462 46.8056 148.571 46.6376C146.738 46.2918 146.695 46.4647 148.214 48.0728L149.382 49.31L150.417 47.7518C150.986 46.8947 151.717 46.3545 152.04 46.552C152.364 46.7496 152.059 47.3043 151.363 47.7855C150.667 48.2668 150.098 48.9263 150.098 49.2521C150.098 50.1405 152.753 47.5235 152.907 46.4822C152.981 45.9865 152.654 45.5805 152.18 45.5805C151.706 45.5805 151.318 45.3384 151.318 45.0427C151.318 44.0615 149.588 43.8308 148.847 44.7126ZM98.5787 45.3396C98.3614 45.8979 98.3212 46.4906 98.489 46.6562C98.6569 46.8219 98.9718 46.5002 99.1892 45.9419C99.4065 45.3836 99.4467 44.7909 99.2789 44.6253C99.111 44.4596 98.7961 44.7813 98.5787 45.3396ZM156.404 47.1333C156.194 47.6735 156.517 48.5179 157.153 49.0907C158.203 50.0363 158.223 50.0339 157.473 49.0516C157.034 48.4758 156.835 47.5952 157.03 47.0941C157.225 46.593 157.247 46.1828 157.079 46.1828C156.911 46.1828 156.608 46.6105 156.404 47.1333ZM159.559 46.7851C159.351 47.1164 159.61 47.3874 160.133 47.3874C160.656 47.3874 161.085 47.1164 161.085 46.7851C161.085 46.4539 160.827 46.1828 160.511 46.1828C160.194 46.1828 159.766 46.4539 159.559 46.7851ZM140.913 48.0415C140.538 48.7324 140.347 49.4112 140.488 49.5497C140.628 49.6882 141.057 49.1233 141.439 48.2933C142.281 46.4719 141.871 46.2756 140.913 48.0415ZM94.55 49.7611C94.55 50.0731 94.8217 50.4935 95.1537 50.6959C95.4992 50.9067 95.6018 50.6651 95.3936 50.1291C94.9877 49.0859 94.55 48.895 94.55 49.7611ZM33.4307 53.8622C32.6719 54.8174 32.6933 54.8385 33.6614 54.0898C34.6784 53.3026 35.0013 52.8081 34.4989 52.8081C34.3726 52.8081 33.8916 53.2821 33.4307 53.8622ZM142.773 54.6506C142.773 55.0011 143.047 55.121 143.383 54.9162C143.719 54.7114 143.993 54.4247 143.993 54.2784C143.993 54.132 143.719 54.0127 143.383 54.0127C143.047 54.0127 142.773 54.3 142.773 54.6506ZM145.262 54.8596C144.716 55.5089 144.899 55.7624 146.138 56.069C147 56.2828 147.541 56.7201 147.34 57.0411C147.139 57.3615 147.437 58.2349 148.001 58.9805C148.791 60.0249 148.938 60.0791 148.64 59.216C148.358 58.4023 148.492 58.1855 149.125 58.4252C149.604 58.6065 150.148 58.3656 150.333 57.8898C150.524 57.3983 150.311 57.0243 149.839 57.0243C149.382 57.0243 148.856 56.6352 148.671 56.1599C148.101 54.6945 146.057 53.9146 145.262 54.8596ZM148.877 54.615C148.877 54.9463 149.168 55.2173 149.523 55.2173C149.878 55.2173 150 54.9463 149.792 54.615C149.585 54.2838 149.294 54.0127 149.146 54.0127C148.998 54.0127 148.877 54.2838 148.877 54.615ZM138.5 55.2173C138.5 55.5486 138.774 55.8196 139.11 55.8196C139.446 55.8196 139.721 55.5486 139.721 55.2173C139.721 54.8861 139.446 54.615 139.11 54.615C138.774 54.615 138.5 54.8861 138.5 55.2173ZM154.193 55.8196C154.452 56.7948 154.212 57.0243 152.935 57.0243C151.785 57.0243 151.452 57.2688 151.707 57.9241C151.899 58.4192 152.284 58.686 152.561 58.5168C152.839 58.3469 153.464 58.7691 153.95 59.4533C154.826 60.6874 154.837 60.685 155.224 59.1624C155.658 57.4567 155.119 54.615 154.361 54.615C154.093 54.615 154.018 55.1571 154.193 55.8196ZM31.2735 56.5725C26.5043 61.8384 18.6886 73.7604 12.9752 84.4844C8.79935 92.3221 3.39842 105.606 3.99845 106.564C4.19989 106.886 4.09917 107.323 3.77321 107.534C3.28671 107.85 1.8321 112.626 0.16995 119.362C-0.123047 120.55 -0.113891 120.551 0.820039 119.398C1.34133 118.755 1.7674 117.348 1.7674 116.271C1.7674 114.259 2.96869 112.703 3.01264 114.659C3.03034 115.453 3.29526 115.279 3.98686 114.019C4.53012 113.029 4.81396 111.484 4.65037 110.405C4.35005 108.424 5.91454 102.651 6.63299 103.089C7.14696 103.403 8.75601 99.8112 9.70825 96.2257C10.0965 94.7633 11.7727 91.1886 13.4336 88.2819C15.0939 85.3758 17.0314 81.6933 17.7388 80.0996C18.4463 78.5053 19.5182 76.5081 20.1207 75.6613C20.7231 74.8138 22.2327 72.1035 23.4749 69.6383C24.7171 67.1724 26.6588 64.0254 27.7899 62.6449C28.921 61.2639 29.8464 59.9587 29.8464 59.7436C29.8464 59.5286 30.5654 58.4228 31.445 57.285C33.2463 54.9547 33.1401 54.512 31.2735 56.5725ZM133.006 58.2644C133.006 58.6149 133.281 58.7348 133.616 58.53C133.952 58.3252 134.227 58.0385 134.227 57.8922C134.227 57.7458 133.952 57.6265 133.616 57.6265C133.281 57.6265 133.006 57.9138 133.006 58.2644ZM163.527 59.469C163.527 59.8195 163.801 59.9394 164.137 59.7346C164.473 59.5298 164.747 59.2431 164.747 59.0968C164.747 58.9504 164.473 58.8312 164.137 58.8312C163.801 58.8312 163.527 59.1185 163.527 59.469ZM165.648 61.6132C166.192 62.1498 166.822 62.4058 167.048 62.183C167.274 61.9595 167.055 61.5252 166.561 61.2169C165.119 60.317 164.575 60.5537 165.648 61.6132ZM130.234 63.0876C130.013 63.4406 129.962 63.8592 130.122 64.017C130.282 64.1748 130.576 63.8857 130.775 63.3743C131.188 62.3131 130.836 62.1263 130.234 63.0876ZM137.058 63.9507C137.251 64.4476 137.488 64.8542 137.584 64.8542C137.68 64.8542 137.917 64.4476 138.11 63.9507C138.322 63.4056 138.113 63.0473 137.584 63.0473C137.055 63.0473 136.846 63.4056 137.058 63.9507ZM127.36 67.6621C127.78 67.8295 128.466 67.8295 128.886 67.6621C129.306 67.4953 128.962 67.3585 128.123 67.3585C127.283 67.3585 126.94 67.4953 127.36 67.6621ZM124.704 68.3264C123.772 68.9408 122.457 71.5108 122.868 71.9156C123.053 72.0993 123.503 71.4753 123.868 70.5297C124.41 69.1209 124.645 68.9697 125.163 69.6931C125.677 70.4098 125.729 70.37 125.437 69.4829C125.142 68.5842 125.322 68.4571 126.448 68.7691C127.521 69.0667 127.619 69.0125 126.902 68.5168C125.815 67.7657 125.586 67.7458 124.704 68.3264ZM128.619 68.8793C129.059 69.0534 129.586 69.0317 129.788 68.8318C129.991 68.6318 129.631 68.4897 128.988 68.5156C128.277 68.5445 128.132 68.6872 128.619 68.8793ZM167.533 72.5076C167.202 73.3659 167.272 73.4352 167.875 72.8449C168.293 72.4359 168.48 71.9499 168.292 71.765C168.104 71.5795 167.763 71.9137 167.533 72.5076ZM138.923 73.6713C138.287 74.2995 139.093 75.0933 140.367 75.0933C141.793 75.0933 141.934 74.1627 140.586 73.652C139.395 73.2009 139.401 73.2009 138.923 73.6713ZM122.019 75.1288C122.019 75.4794 122.293 75.5992 122.629 75.3944C122.965 75.1897 123.239 74.903 123.239 74.7566C123.239 74.6103 122.965 74.491 122.629 74.491C122.293 74.491 122.019 74.7783 122.019 75.1288ZM130.639 75.0355C130.143 75.3451 129.996 75.8775 130.281 76.3328C130.625 76.8827 130.473 76.9942 129.749 76.7201C128.762 76.3467 128.359 76.9327 129.099 77.6627C129.787 78.3421 132.396 76.7093 132.396 75.5986C132.396 74.3838 131.924 74.232 130.639 75.0355ZM116.407 78.0241C115.968 78.6421 115.335 79.1841 114.999 79.2287C114.663 79.2733 114.379 79.513 114.367 79.7611C114.309 80.9615 112.704 82.9244 111.773 82.9323C110.871 82.9407 110.852 83.025 111.642 83.546C112.434 84.0694 112.398 84.2706 111.372 85.0427C110.72 85.5336 110.498 85.9347 110.879 85.9347C111.259 85.9347 111.739 85.6637 111.947 85.3324C112.154 85.0012 112.961 84.7301 113.74 84.7301C115.121 84.7301 115.25 84.5434 116.858 80.2129C117.336 78.9233 117.651 76.9002 117.373 76.9002C117.281 76.9002 116.845 77.4061 116.407 78.0241ZM133.616 77.3935C133.616 78.1211 134.774 78.9697 135.198 78.5523C135.351 78.4005 135.058 77.9338 134.547 77.5146C133.967 77.0393 133.616 76.9936 133.616 77.3935ZM106.148 79.3094C105.598 79.66 105.522 79.8967 105.959 79.9027C106.359 79.9075 106.856 79.6407 107.063 79.3094C107.532 78.5614 107.32 78.5614 106.148 79.3094ZM117.746 80.4953C117.746 80.8158 118.158 80.9224 118.661 80.732C119.165 80.5411 119.577 80.2785 119.577 80.1484C119.577 80.0183 119.165 79.9117 118.661 79.9117C118.158 79.9117 117.746 80.1743 117.746 80.4953ZM130.834 81.0597C131.022 81.3596 131.725 81.4639 132.396 81.2904C134.076 80.8573 133.925 80.514 132.054 80.514C131.195 80.514 130.646 80.7598 130.834 81.0597ZM140.719 81.4139C140.912 81.909 141.29 82.1794 141.561 82.0144C142.303 81.562 144.036 82.3691 143.649 82.9865C143.463 83.2828 143.586 83.5255 143.921 83.5255C145.179 83.5255 145.287 82.227 144.055 81.9089C143.349 81.7271 142.773 81.3386 142.773 81.0458C142.773 80.7537 142.232 80.514 141.571 80.514C140.756 80.514 140.482 80.8031 140.719 81.4139ZM150.403 81.1163C149.633 81.4428 149.521 81.6337 150.098 81.6337C150.601 81.6337 151.562 81.4012 152.234 81.1163C153.004 80.7899 153.116 80.5989 152.539 80.5989C152.036 80.5989 151.074 80.8314 150.403 81.1163ZM126.688 84.3055C125.998 85.0072 125.778 85.6691 126.123 86.0094C126.846 86.7225 128.832 84.6356 128.244 83.7797C127.976 83.3882 127.399 83.5833 126.688 84.3055ZM105.68 84.7295C105.266 85.383 105.191 86.0245 105.506 86.2166C105.811 86.4027 106.242 85.9883 106.465 85.2957C107.006 83.6123 106.581 83.3057 105.68 84.7295ZM154.651 85.9751C154.429 86.328 154.379 86.7466 154.539 86.9044C154.699 87.0622 154.992 86.7731 155.191 86.2618C155.604 85.2005 155.252 85.0138 154.651 85.9751ZM103.855 89.3155L103.972 91.9722L105.034 90.0075C106.393 87.4941 106.388 87.3417 104.943 86.9689C103.866 86.6912 103.75 86.9406 103.855 89.3155ZM164.137 87.4405C163.699 87.9615 163.639 88.3439 163.997 88.3439C164.338 88.3439 164.775 87.9374 164.968 87.4405C165.161 86.9436 165.224 86.537 165.108 86.537C164.992 86.537 164.555 86.9436 164.137 87.4405ZM121.694 88.3741C121.134 89.2691 121.58 89.5859 122.559 88.989C123.084 88.6686 123.147 88.3584 122.736 88.1084C122.388 87.8958 121.919 88.0157 121.694 88.3741ZM106.148 90.7887C106.148 91.1392 106.423 91.2591 106.758 91.0543C107.094 90.8495 107.369 90.5628 107.369 90.4165C107.369 90.2701 107.094 90.1508 106.758 90.1508C106.423 90.1508 106.148 90.4381 106.148 90.7887ZM99.4333 91.6494C99.4333 91.8662 99.8753 92.4793 100.415 93.0124C101.316 93.902 101.379 93.8899 101.178 92.8684C100.976 91.8397 99.4333 90.7622 99.4333 91.6494ZM136.363 91.9577C136.571 92.289 136.861 92.5601 137.01 92.5601C137.158 92.5601 137.279 92.289 137.279 91.9577C137.279 91.6265 136.988 91.3554 136.632 91.3554C136.277 91.3554 136.156 91.6265 136.363 91.9577ZM126.584 92.5793C126.348 92.9576 126.441 93.5508 126.792 93.8972C127.612 94.7067 129.525 94.0008 129.191 93.0112C128.852 92.0047 127.124 91.718 126.584 92.5793ZM102.485 93.7833C102.485 95.1542 103.419 95.3722 103.908 94.1158C104.09 93.646 103.845 93.1124 103.363 92.9299C102.783 92.7106 102.485 93.0003 102.485 93.7833ZM106.068 93.3683C106.441 93.8128 106.567 94.3549 106.346 94.5729C105.732 95.1795 106.945 95.0265 107.979 94.367C108.762 93.8682 108.74 93.7815 107.826 93.7737C107.239 93.7689 106.758 93.4936 106.758 93.1624C106.758 92.8311 106.45 92.5601 106.073 92.5601C105.569 92.5601 105.568 92.7739 106.068 93.3683ZM127.207 93.1624C127 93.4936 127.258 93.7647 127.781 93.7647C128.305 93.7647 128.733 93.4936 128.733 93.1624C128.733 92.8311 128.475 92.5601 128.159 92.5601C127.843 92.5601 127.415 92.8311 127.207 93.1624ZM103.312 97.0984C103.474 98.0807 103.629 99.2233 103.656 99.6371C103.727 100.706 104.726 100.571 105.169 99.4329C105.377 98.8981 104.985 97.779 104.28 96.8942L103.019 95.3126L103.312 97.0984ZM123.868 96.1504C123.374 96.4587 123.128 96.8677 123.322 97.0592C123.517 97.2508 124.023 96.9942 124.448 96.4895C125.329 95.4427 125.16 95.3439 123.868 96.1504ZM119.339 100.089C119.841 102.303 120.19 102.784 120.178 101.243C120.173 100.609 119.89 99.6823 119.549 99.1854C119.097 98.5258 119.04 98.7692 119.339 100.089ZM115.03 99.9919C113.948 100.772 113.948 100.812 115.047 101.228C115.671 101.465 115.987 101.466 115.748 101.23C115.51 100.995 115.621 100.438 115.994 99.9937C116.862 98.9619 116.459 98.9607 115.03 99.9919ZM128.91 100.39C128.734 101.053 128.211 101.595 127.746 101.595C127.282 101.595 126.902 101.866 126.902 102.197C126.902 103.131 128.279 102.885 129.889 101.664C130.705 101.045 131.161 100.253 130.921 99.8702C130.254 98.8053 129.262 99.0619 128.91 100.39ZM105.437 101.706C104.974 104.007 105.822 105.128 106.742 103.431C107.141 102.696 107.308 101.936 107.113 101.744C106.918 101.551 106.731 101.778 106.697 102.247C106.664 102.717 106.44 102.423 106.2 101.595L105.763 100.089L105.437 101.706ZM133.704 100.936C133.09 101.313 133.061 101.557 133.592 101.881C134.429 102.391 135.058 101.939 134.748 101.049C134.621 100.685 134.19 100.638 133.704 100.936ZM136.389 102.758C136.196 103.066 136.317 103.488 136.659 103.697C137 103.904 137.279 103.652 137.279 103.136C137.279 102.078 136.913 101.922 136.389 102.758ZM117.44 103.401C117.233 103.733 117.354 104.004 117.71 104.004C118.065 104.004 118.356 103.733 118.356 103.401C118.356 103.07 118.235 102.799 118.087 102.799C117.939 102.799 117.648 103.07 117.44 103.401ZM121.408 104.004C120.292 104.715 121.256 104.715 122.934 104.004C123.739 103.662 123.843 103.475 123.239 103.453C122.736 103.435 121.912 103.683 121.408 104.004ZM110.072 105.164C110.072 105.802 110.288 106.193 110.551 106.032C110.815 105.871 111.031 106.569 111.031 107.582C111.031 108.595 111.287 109.424 111.6 109.424C112.239 109.424 112.113 107.051 111.414 105.936C111.164 105.535 111.129 104.937 111.336 104.606C111.544 104.275 111.344 104.004 110.893 104.004C110.441 104.004 110.072 104.526 110.072 105.164ZM124.155 104.606C123.947 104.937 124.052 105.208 124.388 105.208C124.724 105.208 125.168 104.937 125.376 104.606C125.583 104.275 125.478 104.004 125.143 104.004C124.807 104.004 124.363 104.275 124.155 104.606ZM103.988 107.225C104.607 107.672 104.918 108.349 104.679 108.731C104.44 109.113 104.503 109.424 104.82 109.424C105.486 109.424 106.181 107.248 105.675 106.749C105.487 106.564 104.778 106.413 104.098 106.413C102.912 106.413 102.908 106.446 103.988 107.225ZM128.936 108.548C128.936 109.03 129.165 109.424 129.445 109.424C129.725 109.424 129.954 109.17 129.954 108.858C129.954 108.546 129.725 108.151 129.445 107.981C129.165 107.81 128.936 108.065 128.936 108.548ZM144.948 113.464C144.617 114.322 144.687 114.392 145.29 113.801C145.707 113.392 145.895 112.906 145.707 112.721C145.519 112.536 145.178 112.87 144.948 113.464ZM146.435 113.641C146.435 114.303 146.541 114.845 146.669 114.845C146.798 114.845 147.047 114.303 147.222 113.641C147.398 112.978 147.293 112.436 146.988 112.436C146.684 112.436 146.435 112.978 146.435 113.641ZM168.182 116.971C167.914 117.661 168.102 117.887 168.826 117.75C169.91 117.544 170.119 116.512 169.141 116.19C168.822 116.085 168.39 116.436 168.182 116.971ZM117.884 117.6C118.464 118.199 119.105 118.523 119.31 118.321C119.514 118.119 119.04 117.63 118.256 117.233C116.893 116.543 116.876 116.559 117.884 117.6ZM160.067 117.529C160.067 118.012 160.301 118.264 160.586 118.09C160.871 117.916 160.947 117.521 160.753 117.213C160.26 116.425 160.067 116.514 160.067 117.529ZM156.482 119.704C156.26 120.057 156.21 120.476 156.37 120.633C156.53 120.791 156.824 120.502 157.023 119.991C157.435 118.929 157.084 118.743 156.482 119.704ZM118.02 122.246C117.11 123.282 116.477 125.084 117.023 125.084C117.276 125.084 117.969 124.271 118.564 123.277C119.629 121.498 119.272 120.821 118.02 122.246ZM121.408 124.783C121.408 125.28 121.516 125.687 121.648 125.687C121.78 125.687 122.046 125.28 122.24 124.783C122.432 124.286 122.324 123.88 122 123.88C121.674 123.88 121.408 124.286 121.408 124.783ZM125.071 125.084C125.071 125.416 125.362 125.687 125.717 125.687C126.072 125.687 126.194 125.416 125.986 125.084C125.779 124.753 125.488 124.482 125.34 124.482C125.191 124.482 125.071 124.753 125.071 125.084ZM86.3589 126.078C85.8541 127.375 86.13 127.565 87.0664 126.561C87.4827 126.115 87.5803 125.602 87.2831 125.421C86.9858 125.24 86.5701 125.535 86.3589 126.078ZM82.531 131.374C81.3035 133.224 81.2522 134.119 82.3735 134.119C83.2366 134.119 84.5985 131.389 84.2371 130.384C83.935 129.546 83.6249 129.726 82.531 131.374ZM145.873 130.856C145.902 131.558 146.047 131.701 146.242 131.221C146.418 130.786 146.396 130.266 146.193 130.066C145.991 129.866 145.847 130.221 145.873 130.856ZM151.013 131.107C150.806 131.439 150.927 131.71 151.282 131.71C151.638 131.71 151.929 131.439 151.929 131.107C151.929 130.776 151.808 130.505 151.66 130.505C151.511 130.505 151.221 130.776 151.013 131.107ZM115.914 131.674C115.914 131.986 116.189 132.408 116.525 132.613C116.861 132.818 117.135 132.563 117.135 132.046C117.135 131.53 116.861 131.107 116.525 131.107C116.189 131.107 115.914 131.362 115.914 131.674ZM74.7672 133.018C73.5 134.804 74.1275 135.264 75.706 133.707C76.4794 132.944 76.726 132.309 76.3408 132.074C75.9941 131.863 75.286 132.287 74.7672 133.018ZM144.96 133.3C144.639 134.127 144.728 134.165 145.505 133.528C146.564 132.661 146.675 132.312 145.89 132.312C145.59 132.312 145.172 132.757 144.96 133.3ZM183.06 135.323C182.7 135.986 182.544 136.528 182.712 136.528C182.88 136.528 183.311 135.986 183.67 135.323C184.03 134.661 184.186 134.119 184.018 134.119C183.85 134.119 183.419 134.661 183.06 135.323ZM75.7799 135.919C74.3881 136.756 73.796 137.565 73.796 138.627C73.796 139.46 74.0707 140.176 74.4064 140.217C74.7421 140.259 75.3605 140.326 75.7799 140.368C76.1998 140.409 76.632 141.063 76.7406 141.821C76.9146 143.029 76.7449 143.151 75.3672 142.809C73.973 142.464 73.796 142.602 73.796 144.027C73.796 145.704 74.2605 145.676 76.3903 143.872C76.9781 143.374 77.4585 143.225 77.4585 143.541C77.4585 144.186 80.9427 145.563 82.5762 145.563C83.2489 145.563 83.5748 145.175 83.4637 144.509C83.3667 143.929 83.4857 143.144 83.7274 142.764C84.3232 141.828 82.8136 139.083 81.8736 139.393C81.4597 139.529 81.121 139.331 81.121 138.952C81.121 138.573 80.9049 138.396 80.6412 138.557C80.0534 138.915 80.1199 141.44 80.7431 142.435C81.2858 143.301 79.6993 144.039 78.3741 143.538C77.3504 143.15 77.1197 141.949 78.0689 141.949C78.4046 141.949 78.6793 141.524 78.6793 141.006C78.6793 140.487 79.0089 139.471 79.4124 138.747C79.8159 138.024 80.2127 136.889 80.2951 136.227C80.3769 135.564 79.9129 136.193 79.2641 137.622C78.1482 140.082 76.8481 140.573 76.8481 138.536C76.8481 137.912 76.4953 137.724 75.7799 137.966C75.192 138.165 75.6627 137.516 76.8249 136.524C79.2391 134.465 78.708 134.157 75.7799 135.919ZM120.846 135.675C120.875 136.376 121.02 136.519 121.215 136.039C121.391 135.604 121.369 135.084 121.166 134.884C120.964 134.684 120.82 135.04 120.846 135.675ZM126.597 135.323C126.389 135.655 126.511 135.926 126.866 135.926C127.221 135.926 127.512 135.655 127.512 135.323C127.512 134.992 127.391 134.721 127.243 134.721C127.095 134.721 126.804 134.992 126.597 135.323ZM64.5257 136.939C64.9658 137.114 65.4926 137.092 65.6952 136.892C65.8979 136.692 65.5378 136.55 64.8944 136.576C64.1832 136.605 64.0386 136.747 64.5257 136.939ZM157.117 138.335C156.904 138.998 156.897 140.059 157.101 140.694C157.305 141.328 157.186 142.022 156.837 142.235C156.487 142.448 156.202 142.199 156.202 141.683C156.202 141.167 155.944 140.744 155.629 140.744C155.314 140.744 155.098 141.286 155.149 141.949C155.273 143.583 156.115 143.442 158.643 141.368C160.451 139.884 160.648 139.493 159.927 138.824C159.458 138.389 159.249 138.342 159.462 138.719C159.676 139.095 159.445 139.735 158.949 140.141C158.221 140.737 157.974 140.691 157.667 139.901C157.457 139.363 157.625 138.519 158.04 138.026C158.51 137.466 158.552 137.13 158.149 137.13C157.795 137.13 157.33 137.672 157.117 138.335ZM163.448 138.787C162.673 139.762 162.699 139.773 163.793 138.937C164.879 138.108 164.94 138.127 164.542 139.173C164.175 140.137 164.251 140.196 165.032 139.556C165.932 138.819 165.786 137.733 164.786 137.733C164.511 137.733 163.909 138.207 163.448 138.787ZM59.5685 140.076C58.9612 140.808 59.068 140.895 60.2143 140.604C61.0488 140.392 61.5914 140.528 61.5969 140.951C61.6067 141.668 62.7823 140.176 62.7994 139.426C62.8159 138.676 60.312 139.18 59.5685 140.076ZM137.084 140.51C137.379 141.267 137.27 141.412 136.678 141.051C136.14 140.723 136.015 140.791 136.305 141.253C136.545 141.636 136.999 141.949 137.315 141.949C138.077 141.949 138.054 140.314 137.286 139.845C136.927 139.626 136.845 139.897 137.084 140.51ZM167.469 141.387C166.812 142.435 167.56 142.658 168.398 141.662C168.879 141.09 168.926 140.744 168.52 140.744C168.164 140.744 167.69 141.033 167.469 141.387ZM148.194 142.401C148.154 142.649 148.148 143.039 148.181 143.267C148.214 143.495 147.694 143.854 147.024 144.063C146.354 144.273 145.964 144.696 146.157 145.004C146.35 145.311 146.187 145.563 145.795 145.563C145.404 145.563 145.224 145.902 145.396 146.315C145.567 146.73 145.891 147.518 146.115 148.068C146.398 148.761 146.136 149.189 145.258 149.464C144.006 149.856 143.432 152.188 144.589 152.188C144.954 152.188 144.982 152.712 144.662 153.543C144.197 154.749 144.329 154.898 145.853 154.898H147.567L146.396 153.029C145.236 151.177 145.237 151.15 146.473 150.046C147.237 149.364 147.658 148.335 147.559 147.397C147.469 146.553 147.607 145.525 147.866 145.113C148.435 144.204 148.913 141.949 148.537 141.949C148.388 141.949 148.234 142.152 148.194 142.401ZM145.519 143.153C145.312 143.485 145.433 143.756 145.789 143.756C146.144 143.756 146.435 143.485 146.435 143.153C146.435 142.822 146.314 142.551 146.166 142.551C146.018 142.551 145.727 142.822 145.519 143.153ZM150.717 145.081C150.712 145.644 150.228 146.381 149.64 146.719C149.052 147.057 148.862 147.341 149.218 147.351C150.602 147.391 151.921 145.888 151.316 144.96C150.809 144.183 150.725 144.2 150.717 145.081ZM42.9702 145.563C43.1777 145.894 43.4683 146.165 43.6166 146.165C43.765 146.165 43.8858 145.894 43.8858 145.563C43.8858 145.231 43.5947 144.96 43.2394 144.96C42.8841 144.96 42.7627 145.231 42.9702 145.563ZM175.38 145.774C175.169 146.317 174.708 146.585 174.356 146.37C173.996 146.15 173.894 146.265 174.125 146.632C174.35 146.992 174.224 147.476 173.846 147.706C173.467 147.937 172.917 147.753 172.624 147.296C172.224 146.673 172.089 146.658 172.082 147.234C172.077 147.656 172.777 148.266 173.638 148.589C175.666 149.35 175.892 149.33 175.563 148.424C175.413 148.01 175.549 147.173 175.867 146.565C176.184 145.957 176.291 145.308 176.104 145.124C175.917 144.939 175.591 145.232 175.38 145.774ZM200.073 146.014C199.314 146.97 199.336 146.991 200.304 146.242C200.891 145.787 201.372 145.313 201.372 145.188C201.372 144.692 200.871 145.011 200.073 146.014ZM37.7817 146.396C37.7817 146.523 38.3317 146.768 39.0031 146.942C39.6752 147.115 40.0714 147.011 39.8827 146.711C39.5543 146.187 37.7817 145.92 37.7817 146.396ZM41.4185 147.099C40.7959 147.839 40.8283 147.936 41.6011 147.644C42.1187 147.448 42.723 147.577 42.9446 147.931C43.1661 148.284 43.0404 148.574 42.665 148.574C42.2896 148.574 42.1742 148.88 42.408 149.254C42.6986 149.718 43.0123 149.62 43.3951 148.944C43.7784 148.268 43.6746 147.677 43.066 147.077C42.2859 146.307 42.0821 146.31 41.4185 147.099ZM50.3013 146.758C50.0907 147.094 50.2775 147.374 50.7169 147.379C51.3628 147.386 51.3658 147.482 50.7322 147.878C50.3 148.149 50.1242 148.82 50.3397 149.375C50.5601 149.941 50.4355 150.381 50.0553 150.381C49.6835 150.381 49.3795 149.806 49.3795 149.103C49.3795 148.017 49.2367 147.941 48.4352 148.598C47.8358 149.088 47.7217 149.512 48.1239 149.757C48.4719 149.97 47.7711 150.495 46.5668 150.925C44.7184 151.584 44.4218 151.935 44.6617 153.173C44.8576 154.185 44.5927 154.827 43.8052 155.242C43.1784 155.573 42.665 155.666 42.665 155.448C42.665 155.23 42.2963 155.354 41.8458 155.723C41.3953 156.091 40.7916 156.193 40.5048 155.947C40.2172 155.702 40.4571 156.249 41.0376 157.165C42.0735 158.798 42.0656 158.839 40.6073 159.386C39.79 159.693 38.9055 160.288 38.6424 160.708C37.9337 161.839 37.7719 164.311 38.4324 163.908C38.7462 163.717 39.0025 162.931 39.0025 162.161C39.0025 161.137 39.4225 160.682 40.564 160.466C41.6285 160.265 42.0344 160.405 41.8403 160.904C41.6481 161.398 42.0442 161.545 43.0569 161.354C44.3803 161.104 44.5152 161.24 44.1947 162.502C43.7326 164.322 45.1714 166.376 46.5442 165.857C47.0966 165.648 47.5483 164.926 47.5483 164.253C47.5483 162.956 48.7557 162.498 48.7887 163.782C48.8003 164.238 49.1305 164.116 49.6268 163.471C50.1139 162.837 50.8476 162.558 51.4385 162.782C51.9848 162.989 52.4316 162.912 52.4316 162.613C52.4316 161.836 48.495 160.53 47.4006 160.945C46.8811 161.142 46.3269 160.886 46.1199 160.353C45.8923 159.767 46.0912 159.416 46.6516 159.416C47.1717 159.416 47.552 158.846 47.5575 158.06C47.5709 156.182 48.4682 154.945 49.4039 155.516C49.8734 155.802 50.4966 155.552 50.9977 154.875C51.7351 153.881 51.6252 153.684 49.9466 152.988C47.1192 151.814 48.3485 150.977 51.3567 152.028C52.7875 152.527 55.0411 153.005 56.3651 153.091C58.3679 153.22 58.6041 153.124 57.7703 152.523C56.9029 151.897 56.8766 151.591 57.5786 150.256C58.6975 148.128 58.0431 147.429 54.5528 147.024C52.9047 146.833 51.3597 146.557 51.1204 146.411C50.8805 146.265 50.5125 146.421 50.3013 146.758ZM135.448 146.803C135.448 147.153 135.722 147.273 136.058 147.068C136.394 146.864 136.668 146.577 136.668 146.431C136.668 146.284 136.394 146.165 136.058 146.165C135.722 146.165 135.448 146.452 135.448 146.803ZM195.856 147.468C195.158 148.813 195.174 148.829 196.229 147.836C196.836 147.264 197.165 146.63 196.959 146.429C196.755 146.227 196.259 146.695 195.856 147.468ZM46.3275 147.972C46.3275 148.303 45.974 148.574 45.5419 148.574C45.1097 148.574 44.7148 149.116 44.6641 149.779C44.5451 151.335 44.9492 151.299 46.3617 149.628C47.6515 148.103 47.8382 147.37 46.9379 147.37C46.6022 147.37 46.3275 147.641 46.3275 147.972ZM123.333 148.236C123.45 148.788 123.819 149.226 124.155 149.208C125.061 149.161 124.895 147.813 123.944 147.501C123.43 147.332 123.202 147.607 123.333 148.236ZM93.024 148.574C92.8165 148.905 92.9214 149.176 93.2572 149.176C93.5929 149.176 94.0373 148.905 94.2448 148.574C94.4524 148.243 94.3474 147.972 94.0116 147.972C93.6759 147.972 93.2315 148.243 93.024 148.574ZM133.167 149.273C133.093 150.243 133.241 150.39 133.77 149.868C134.232 149.413 134.265 148.973 133.868 148.581C133.471 148.189 133.231 148.425 133.167 149.273ZM58.9429 148.976C58.2574 149.652 58.4905 151.469 59.2987 151.754C59.7187 151.902 60.8535 151.628 61.8216 151.145C63.1913 150.462 63.6839 150.432 64.0447 151.008C64.3737 151.533 64.7228 151.354 65.2454 150.389C65.8338 149.305 65.8271 149.126 65.2106 149.502C64.1698 150.136 60.9188 150.36 61.2875 149.771C61.4486 149.514 61.1477 149.138 60.6184 148.938C59.4269 148.487 59.4379 148.487 58.9429 148.976ZM137.203 149.478C137.16 149.974 137.077 150.72 137.018 151.134C136.861 152.227 137.987 154.597 138.663 154.597C138.981 154.597 139.062 155.056 138.844 155.617C138.509 156.477 138.654 156.454 139.761 155.467C140.839 154.507 140.905 154.262 140.125 154.107C139.516 153.986 139.027 152.957 138.767 151.247C138.381 148.704 137.365 147.556 137.203 149.478ZM184.298 149.153C183.804 149.461 183.559 149.87 183.753 150.062C183.948 150.253 184.454 149.997 184.879 149.492C185.76 148.445 185.591 148.346 184.298 149.153ZM199.297 150.14C199.079 150.698 199.039 151.291 199.207 151.457C199.375 151.622 199.69 151.301 199.907 150.742C200.124 150.184 200.165 149.591 199.997 149.426C199.829 149.26 199.514 149.582 199.297 150.14ZM181.597 150.28C181.424 150.557 181.67 150.783 182.144 150.783C182.618 150.783 182.864 150.557 182.692 150.28C182.519 150.005 182.272 149.779 182.144 149.779C182.016 149.779 181.769 150.005 181.597 150.28ZM186.034 150.833C185.275 151.788 185.296 151.809 186.264 151.06C186.852 150.606 187.333 150.131 187.333 150.006C187.333 149.511 186.831 149.829 186.034 150.833ZM31.0672 151.586C31.0672 152.248 31.1728 152.79 31.301 152.79C31.4298 152.79 31.6788 152.248 31.8546 151.586C32.0298 150.923 31.9248 150.381 31.6202 150.381C31.3162 150.381 31.0672 150.923 31.0672 151.586ZM129.954 151.621C129.954 152.303 130.229 152.694 130.564 152.489C130.9 152.284 131.175 151.727 131.175 151.249C131.175 150.771 130.9 150.381 130.564 150.381C130.229 150.381 129.954 150.939 129.954 151.621ZM37.6291 152.838C37.0413 153.176 36.5609 153.702 36.5609 154.006C36.5609 154.823 38.2432 154.042 38.6308 153.045C39.0215 152.042 39.0172 152.04 37.6291 152.838ZM64.945 152.79C64.7375 153.121 64.859 153.393 65.2142 153.393C65.5695 153.393 65.8607 153.121 65.8607 152.79C65.8607 152.459 65.7398 152.188 65.5915 152.188C65.4431 152.188 65.1526 152.459 64.945 152.79ZM94.7649 154.321C93.5844 155.584 93.4879 156.404 94.5201 156.404C94.7277 156.404 95.3838 155.591 95.979 154.597C97.2511 152.472 96.626 152.329 94.7649 154.321ZM143.383 153.273C143.383 153.664 142.947 153.792 142.367 153.573C141.73 153.331 141.501 153.427 141.753 153.829C141.974 154.182 141.717 154.637 141.181 154.84C140.346 155.156 140.397 155.36 141.54 156.273C142.713 157.211 142.784 157.529 142.132 158.94C141.223 160.908 141.786 162.699 143.151 162.181C143.824 161.927 144.027 162.073 143.802 162.653C143.582 163.218 143.813 163.408 144.505 163.229C145.64 162.937 147.954 159.416 147.011 159.416C146.688 159.416 145.582 158.622 144.553 157.652C142.932 156.123 142.777 155.714 143.388 154.589C143.775 153.874 143.933 153.132 143.738 152.94C143.542 152.747 143.383 152.897 143.383 153.273ZM48.365 154.341C49.3185 154.865 50.2567 155.137 50.4508 154.945C50.9501 154.453 50.5534 154.219 48.4639 153.776L46.6327 153.389L48.365 154.341ZM98.5354 154.578C98.428 154.754 98.7094 155.234 99.1599 155.645C99.6757 156.116 100.118 156.171 100.353 155.796C100.558 155.468 100.504 155.195 100.232 155.19C99.9607 155.185 100.147 154.926 100.646 154.615C101.354 154.173 101.243 154.071 100.142 154.153C99.3656 154.211 98.6422 154.402 98.5354 154.578ZM102.18 155.313L100.959 156.56L102.333 155.858C103.088 155.473 103.706 154.895 103.706 154.576C103.706 153.807 103.609 153.854 102.18 155.313ZM195.878 155.802C195.519 156.464 195.363 157.006 195.53 157.006C195.698 157.006 196.129 156.464 196.489 155.802C196.848 155.139 197.005 154.597 196.837 154.597C196.669 154.597 196.238 155.139 195.878 155.802ZM42.665 156.935C42.665 157.267 42.9397 157.705 43.2754 157.91C43.6111 158.115 43.8858 158.011 43.8858 157.68C43.8858 157.348 43.6111 156.91 43.2754 156.705C42.9397 156.5 42.665 156.604 42.665 156.935ZM49.9899 157.538C49.9899 157.869 50.2646 158.307 50.6004 158.512C50.9361 158.717 51.2108 158.613 51.2108 158.282C51.2108 157.951 50.9361 157.512 50.6004 157.307C50.2646 157.103 49.9899 157.206 49.9899 157.538ZM77.4585 157.91C77.4585 158.411 78.0011 158.813 78.6793 158.813C80.1345 158.813 80.2987 157.888 78.9345 157.372C77.5702 156.855 77.4585 156.896 77.4585 157.91ZM86.0042 157.644C86.0042 157.995 86.2789 158.115 86.6147 157.91C86.9504 157.705 87.2251 157.418 87.2251 157.272C87.2251 157.126 86.9504 157.006 86.6147 157.006C86.2789 157.006 86.0042 157.294 86.0042 157.644ZM104.878 159.056C105.423 159.705 105.406 159.973 104.8 160.213C104.366 160.385 104.584 160.547 105.283 160.573C107.017 160.638 107.479 160.041 106.468 159.043C105.302 157.892 103.909 157.904 104.878 159.056ZM195.537 159.147C194.399 160.047 194.407 160.058 195.726 159.428C196.482 159.066 197.099 158.645 197.099 158.491C197.099 158.03 196.782 158.163 195.537 159.147ZM15.1751 161.437C14.3028 163.161 13.9744 164.537 14.268 165.24C14.5958 166.025 14.8143 166.114 15.0262 165.55C15.1904 165.115 15.957 164.521 16.7304 164.231C17.9873 163.759 18.0831 163.471 17.6357 161.512C17.3598 160.306 17.0015 159.188 16.8385 159.028C16.6755 158.867 15.9271 159.951 15.1751 161.437ZM36.2557 159.416C36.0481 159.747 36.1696 160.018 36.5249 160.018C36.8801 160.018 37.1713 159.747 37.1713 159.416C37.1713 159.084 37.0504 158.813 36.9021 158.813C36.7538 158.813 36.4632 159.084 36.2557 159.416ZM86.9357 159.894C86.4926 161.032 89.3414 163.901 90.3211 163.303C91.3155 162.697 90.9291 161.825 89.6667 161.825C88.4074 161.825 87.9692 160.877 89.0624 160.518C89.4012 160.406 89.1509 159.99 88.5063 159.593C87.5364 158.995 87.2648 159.047 86.9357 159.894ZM145.011 160.42C144.787 160.64 144.604 161.101 144.604 161.443C144.604 161.821 144.888 161.785 145.326 161.353C145.723 160.961 145.906 160.5 145.733 160.329C145.56 160.158 145.234 160.199 145.011 160.42ZM102.561 162.036C101.984 162.722 102.151 162.879 103.455 162.879C104.336 162.879 104.822 162.707 104.535 162.495C104.247 162.284 103.845 161.905 103.641 161.652C103.436 161.4 102.951 161.572 102.561 162.036ZM131.556 162.149C130.967 163.664 131.14 164.054 131.86 162.834C132.216 162.229 132.379 161.607 132.222 161.452C132.065 161.297 131.764 161.611 131.556 162.149ZM72.5752 163.309C72.5752 163.463 73.1935 163.914 73.9486 164.312C75.1939 164.966 75.2439 164.94 74.4846 164.032C73.7045 163.099 72.5752 162.672 72.5752 163.309ZM191.27 163.68C191.045 164.039 189.999 164.851 188.945 165.485C187.89 166.12 187.366 166.64 187.781 166.641C188.562 166.643 192.846 163.078 192.099 163.047C191.867 163.037 191.494 163.322 191.27 163.68ZM95.531 164.584C94.9578 166.058 95.0823 166.252 96.076 165.439C97.0906 164.607 97.2908 163.632 96.4466 163.632C96.1469 163.632 95.7348 164.06 95.531 164.584ZM91.498 167.178C91.498 167.971 94.6459 170.363 95.1 169.915C95.3002 169.718 94.915 169.181 94.2436 168.722C93.5728 168.264 92.6809 167.598 92.261 167.242C91.8148 166.864 91.498 166.837 91.498 167.178ZM86.4114 168.249C85.7375 168.914 85.9518 169.655 86.8179 169.655C87.266 169.655 87.6322 169.248 87.6322 168.751C87.6322 167.798 87.0926 167.577 86.4114 168.249ZM107.776 168.249C107.552 168.47 107.369 168.931 107.369 169.273C107.369 169.65 107.653 169.615 108.091 169.183C108.488 168.791 108.671 168.33 108.498 168.159C108.325 167.988 107.999 168.028 107.776 168.249ZM136.949 168.49C136.292 169.539 137.04 169.761 137.877 168.766C138.359 168.193 138.405 167.848 138 167.848C137.643 167.848 137.17 168.137 136.949 168.49ZM48.9864 169.955C49.0347 170.783 49.418 171.461 49.8373 171.461C50.6779 171.462 50.7939 170.853 50.2298 169.403C49.6585 167.933 48.8882 168.275 48.9864 169.955ZM92.4136 170.257C92.6211 170.588 93.0655 170.859 93.4012 170.859C93.737 170.859 93.8419 170.588 93.6344 170.257C93.4269 169.926 92.9825 169.655 92.6468 169.655C92.311 169.655 92.206 169.926 92.4136 170.257ZM108.379 170.106C108.223 170.355 109.031 170.558 110.174 170.558C111.317 170.558 112.252 170.355 112.252 170.106C112.252 169.858 111.444 169.655 110.457 169.655C109.469 169.655 108.534 169.858 108.379 170.106ZM96.3813 170.687C96.8848 170.871 97.8462 171.271 98.5177 171.576C99.719 172.122 99.7196 172.115 98.5537 171.194C97.9018 170.679 96.9404 170.279 96.4173 170.305C95.595 170.346 95.5902 170.398 96.3813 170.687ZM126.902 170.859C126.902 171.191 127.193 171.462 127.548 171.462C127.904 171.462 128.025 171.191 127.817 170.859C127.61 170.528 127.319 170.257 127.171 170.257C127.023 170.257 126.902 170.528 126.902 170.859ZM132.842 172.714C133.058 173.529 133.334 173.802 133.487 173.351C133.633 172.916 133.464 172.275 133.109 171.924C132.656 171.477 132.576 171.713 132.842 172.714ZM134.536 173.262C134.323 173.603 134.567 173.704 135.111 173.499C136.168 173.098 136.361 172.666 135.484 172.666C135.167 172.666 134.741 172.934 134.536 173.262ZM127.512 177.119C127.512 177.249 127.938 177.517 128.46 177.715C129.003 177.92 129.248 177.819 129.034 177.478C128.676 176.905 127.512 176.631 127.512 177.119ZM129.649 179.894C129.856 180.225 130.49 180.492 131.058 180.487C131.948 180.479 131.964 180.397 131.175 179.894C129.98 179.131 129.171 179.131 129.649 179.894ZM117.746 182.905C117.746 183.237 118.02 183.508 118.356 183.508C118.692 183.508 118.966 183.237 118.966 182.905C118.966 182.574 118.692 182.303 118.356 182.303C118.02 182.303 117.746 182.574 117.746 182.905ZM127.512 183.508C127.512 184.262 128.16 184.262 129.344 183.508C130.084 183.035 129.996 182.922 128.886 182.914C128.13 182.91 127.512 183.176 127.512 183.508ZM67.8164 187.751C67.4062 188.398 67.3189 188.928 67.6217 188.928C68.1692 188.928 69.1129 187.118 68.7516 186.761C68.6466 186.658 68.226 187.103 67.8164 187.751ZM77.4585 187.423C77.0349 187.927 76.9683 188.326 77.3089 188.326C77.6447 188.326 78.2612 187.919 78.6793 187.423C79.1029 186.918 79.1695 186.519 78.8289 186.519C78.4931 186.519 77.8766 186.926 77.4585 187.423ZM89.6667 187.724C89.6667 188.055 89.9579 188.326 90.3132 188.326C90.6684 188.326 90.7899 188.055 90.5823 187.724C90.3748 187.392 90.0842 187.121 89.9359 187.121C89.7876 187.121 89.6667 187.392 89.6667 187.724ZM87.8355 188.362C87.8355 188.712 88.1102 188.832 88.4459 188.627C88.7816 188.422 89.0563 188.136 89.0563 187.989C89.0563 187.843 88.7816 187.724 88.4459 187.724C88.1102 187.724 87.8355 188.011 87.8355 188.362ZM130.299 188.263C130.113 188.56 130.371 188.957 130.873 189.148C131.427 189.357 131.785 189.146 131.785 188.608C131.785 187.634 130.831 187.412 130.299 188.263ZM91.2507 189.298C90.9779 189.999 90.6605 190.094 90.1068 189.641C89.555 189.189 88.9147 189.352 87.8245 190.222C86.8936 190.965 86.7642 191.206 87.4894 190.847C88.3006 190.445 89.6002 190.536 91.6524 191.138C93.2938 191.618 95.0976 191.895 95.6616 191.754C96.3208 191.587 95.9796 191.333 94.7026 191.04C93.3341 190.726 92.7188 190.235 92.7188 189.455C92.7188 188.071 91.7672 187.969 91.2507 189.298ZM77.8656 189.33C77.6416 189.55 77.4762 190.296 77.4969 190.986C77.533 192.14 77.583 192.125 78.1208 190.798C78.7184 189.324 78.5945 188.61 77.8656 189.33ZM88.9422 191.749C89.3823 191.923 89.9091 191.901 90.1117 191.701C90.3144 191.501 89.9542 191.359 89.3109 191.385C88.5997 191.414 88.4551 191.557 88.9422 191.749ZM110.818 192.824C110.629 193.31 110.737 193.868 111.058 194.064C111.379 194.26 111.642 193.862 111.642 193.18C111.642 191.725 111.302 191.579 110.818 192.824ZM79.786 192.953C80.2261 193.128 80.7529 193.106 80.9555 192.906C81.1582 192.706 80.798 192.564 80.1547 192.59C79.4436 192.619 79.2989 192.761 79.786 192.953ZM95.531 193.495C94.9578 194.968 95.0823 195.163 96.076 194.349C97.0906 193.518 97.2908 192.542 96.4466 192.542C96.1469 192.542 95.7348 192.971 95.531 193.495ZM113.92 193.219C114.335 193.631 114.827 193.816 115.015 193.63C115.203 193.445 114.864 193.108 114.262 192.882C113.392 192.555 113.322 192.624 113.92 193.219ZM67.9971 195.554C67.7896 195.885 67.8946 196.156 68.2303 196.156C68.566 196.156 69.0104 195.885 69.2179 195.554C69.4255 195.222 69.3205 194.951 68.9847 194.951C68.649 194.951 68.2046 195.222 67.9971 195.554ZM99.4352 196.16C99.8057 196.843 100.411 197.208 100.788 196.977C101.234 196.706 101.337 196.909 101.082 197.563C100.868 198.114 100.959 198.565 101.283 198.565C101.609 198.565 101.875 198.278 101.875 197.927C101.875 197.577 102.185 197.479 102.565 197.71C102.978 197.962 103.145 197.806 102.981 197.321C102.83 196.876 101.821 196.155 100.737 195.718C98.8357 194.953 98.7893 194.969 99.4352 196.16ZM54.8732 196.085C54.8732 196.416 55.1479 196.855 55.4837 197.059C55.8194 197.264 56.0941 197.161 56.0941 196.829C56.0941 196.498 55.8194 196.06 55.4837 195.855C55.1479 195.65 54.8732 195.754 54.8732 196.085ZM92.1084 197.396C92.1084 197.747 92.3831 197.866 92.7188 197.662C93.0545 197.457 93.3292 197.17 93.3292 197.024C93.3292 196.877 93.0545 196.758 92.7188 196.758C92.3831 196.758 92.1084 197.046 92.1084 197.396ZM45.1066 203.384C45.1066 203.715 45.3813 203.986 45.7171 203.986C46.0528 203.986 46.3275 203.715 46.3275 203.384C46.3275 203.052 46.0528 202.781 45.7171 202.781C45.3813 202.781 45.1066 203.052 45.1066 203.384ZM50.6004 203.384C50.6004 203.715 50.875 203.986 51.2108 203.986C51.5465 203.986 51.8212 203.715 51.8212 203.384C51.8212 203.052 51.5465 202.781 51.2108 202.781C50.875 202.781 50.6004 203.052 50.6004 203.384ZM120.412 212.547C120.248 212.807 120.665 213.02 121.336 213.02C122.008 213.02 122.69 212.807 122.854 212.547C123.017 212.287 122.6 212.074 121.929 212.074C121.257 212.074 120.575 212.287 120.412 212.547ZM124.283 214.827C124.459 215.49 124.708 216.032 124.837 216.032C124.965 216.032 125.071 215.49 125.071 214.827C125.071 214.165 124.822 213.623 124.518 213.623C124.213 213.623 124.108 214.165 124.283 214.827ZM41.4442 223.295C41.4442 223.646 41.7189 223.765 42.0546 223.561C42.3903 223.356 42.665 223.069 42.665 222.923C42.665 222.776 42.3903 222.657 42.0546 222.657C41.7189 222.657 41.4442 222.944 41.4442 223.295ZM17.0277 223.487C17.0277 223.612 17.5087 224.086 18.0959 224.541C19.064 225.29 19.0854 225.269 18.3267 224.314C17.5288 223.31 17.0277 222.991 17.0277 223.487ZM38.0869 229.584C38.0869 230.412 38.3134 231.015 38.5905 230.924C38.8676 230.833 39.0733 230.562 39.0483 230.321C39.0233 230.081 39.0025 229.478 39.0025 228.981C39.0025 228.484 38.7962 228.078 38.5447 228.078C38.2932 228.078 38.0869 228.756 38.0869 229.584ZM54.0998 230.562C54.5143 230.974 55.0069 231.159 55.1943 230.973C55.3823 230.788 55.0435 230.451 54.4417 230.225C53.5718 229.898 53.5016 229.967 54.0998 230.562ZM39.6129 231.692C39.6129 232.023 39.8876 232.294 40.2234 232.294C40.5591 232.294 40.8338 232.023 40.8338 231.692C40.8338 231.36 40.5591 231.089 40.2234 231.089C39.8876 231.089 39.6129 231.36 39.6129 231.692ZM76.6723 231.877C76.4629 232.416 76.5832 233.036 76.9396 233.253C77.3712 233.517 77.3114 233.823 76.7608 234.167C76.2065 234.514 76.173 234.688 76.6595 234.694C77.7722 234.708 78.1251 233.753 77.5629 232.253C77.1399 231.125 76.9897 231.062 76.6723 231.877ZM100.862 233.95C100.23 234.53 99.9796 234.801 100.306 234.553C100.632 234.304 101.547 234.101 102.338 234.101C103.143 234.101 103.612 233.835 103.401 233.499C102.857 232.63 102.167 232.752 100.862 233.95ZM42.8677 236.766C43.0544 237.245 42.8786 237.768 42.4782 237.929C42.0583 238.098 42.1748 238.242 42.7523 238.269C44.0903 238.333 44.672 236.706 43.4744 236.252C42.8231 236.005 42.6345 236.165 42.8677 236.766ZM84.173 237.183C84.173 238.161 83.8892 238.384 82.9522 238.142C82.0567 237.912 81.7314 238.124 81.7314 238.94C81.7314 240.57 83.0059 241.074 83.7958 239.757C84.842 238.012 85.3529 235.908 84.7309 235.908C84.4239 235.908 84.173 236.481 84.173 237.183ZM50.6004 237.112C50.6004 237.444 50.8433 237.715 51.1394 237.715C51.436 237.715 51.867 238.324 52.0965 239.07C52.3315 239.833 52.6465 240.111 52.8174 239.705C53.1873 238.829 52.0055 236.51 51.1894 236.51C50.8653 236.51 50.6004 236.781 50.6004 237.112ZM101.265 237.094C101.265 237.414 101.677 237.521 102.18 237.33C102.684 237.14 103.096 236.877 103.096 236.747C103.096 236.617 102.684 236.51 102.18 236.51C101.677 236.51 101.265 236.773 101.265 237.094ZM44.2917 238.576C44.0763 239.131 44.1477 239.433 44.4511 239.248C45.3032 238.728 45.6237 240.285 44.9412 241.63C44.6055 242.292 44.5414 242.64 44.799 242.404C45.0566 242.167 45.7805 242.244 46.4074 242.575C47.2913 243.042 47.5483 242.969 47.5483 242.253C47.5483 241.745 47.2571 241.329 46.9019 241.329C46.5466 241.329 46.3873 241.118 46.5491 240.86C46.7102 240.602 46.3568 239.756 45.7635 238.98C44.8204 237.747 44.6342 237.695 44.2917 238.576ZM59.2798 239.899C59.2072 240.761 59.411 241.238 59.7608 241.025C60.4841 240.584 60.5635 239.11 59.8859 238.697C59.6216 238.536 59.3488 239.077 59.2798 239.899ZM39.3077 240.124C39.1002 240.455 39.2217 240.726 39.5769 240.726C39.9322 240.726 40.2234 240.455 40.2234 240.124C40.2234 239.793 40.1025 239.522 39.9542 239.522C39.8058 239.522 39.5153 239.793 39.3077 240.124ZM36.5426 241.295C37.2421 242.584 38.4031 243.488 38.3726 242.719C38.3457 242.048 36.824 240.124 36.3198 240.124C36.0927 240.124 36.1934 240.651 36.5426 241.295ZM51.516 241.931C51.3084 242.262 51.4299 242.533 51.7852 242.533C52.1404 242.533 52.4316 242.262 52.4316 241.931C52.4316 241.6 52.3107 241.329 52.1624 241.329C52.0141 241.329 51.7235 241.6 51.516 241.931ZM81.3395 241.792C81.5629 242.149 81.262 242.566 80.6705 242.719C79.7091 242.966 79.7042 243.003 80.6271 243.066C81.9212 243.153 82.6018 242.16 81.6471 241.579C81.2186 241.317 81.0953 241.403 81.3395 241.792ZM76.6711 243.738C76.8469 244.4 77.0959 244.942 77.2247 244.942C77.3529 244.942 77.4585 244.4 77.4585 243.738C77.4585 243.075 77.2094 242.533 76.9054 242.533C76.6009 242.533 76.4959 243.075 76.6711 243.738ZM53.6524 243.456C53.6524 243.632 54.0632 244.746 54.565 245.931C55.1717 247.365 55.7693 247.974 56.351 247.755C56.8321 247.572 57.5542 247.814 57.9552 248.291C58.3569 248.768 59.0753 249.158 59.5514 249.158C60.0282 249.158 61.0079 249.701 61.7282 250.363C63.7193 252.193 64.0013 251.898 63.4697 248.536C63.4416 248.359 62.5699 247.719 61.5328 247.114C60.171 246.32 59.8316 245.832 60.312 245.358C60.6777 244.997 60.9554 244.281 60.9291 243.768C60.8968 243.142 60.779 243.084 60.572 243.591C60.4017 244.007 59.969 244.168 59.61 243.95C59.2377 243.722 59.1345 243.834 59.3701 244.21C59.9903 245.2 57.8759 246.166 56.9206 245.328C54.4252 243.141 53.6524 242.699 53.6524 243.456ZM57.0726 243.838C57.2453 244.114 57.6451 244.34 57.9613 244.34C58.2775 244.34 58.5357 244.114 58.5357 243.838C58.5357 243.562 58.1359 243.336 57.647 243.336C57.158 243.336 56.8998 243.562 57.0726 243.838ZM50.9245 246.117C50.3916 246.968 51.1503 249.266 51.8279 248.853C52.1185 248.676 52.6312 249.011 52.9663 249.598C53.462 250.464 53.7238 250.52 54.3635 249.894C55.2853 248.994 54.6163 247.629 52.6086 246.314C51.7339 245.74 51.1992 245.678 50.9245 246.117ZM58.2305 247.352C58.023 247.683 58.2818 247.954 58.8049 247.954C59.328 247.954 59.7565 247.683 59.7565 247.352C59.7565 247.02 59.4983 246.749 59.1821 246.749C58.8659 246.749 58.438 247.02 58.2305 247.352ZM66.4711 248.535C66.4711 248.854 67.0033 249.397 67.6541 249.741C68.6484 250.266 68.8224 250.173 68.7449 249.16C68.6533 247.962 66.4711 247.362 66.4711 248.535ZM53.042 252.772C53.042 253.104 53.3332 253.375 53.6884 253.375C54.0437 253.375 54.1652 253.104 53.9576 252.772C53.7501 252.441 53.4595 252.17 53.3112 252.17C53.1629 252.17 53.042 252.441 53.042 252.772ZM115.609 267.228C115.402 267.559 115.507 267.83 115.842 267.83C116.178 267.83 116.623 267.559 116.83 267.228C117.038 266.896 116.933 266.625 116.597 266.625C116.261 266.625 115.817 266.896 115.609 267.228ZM119.622 268.077C119.2 268.579 119.141 269.07 119.478 269.275C119.792 269.467 120.192 269.084 120.366 268.426C120.742 267.006 120.585 266.932 119.622 268.077ZM120.846 269.988C120.875 270.69 121.02 270.832 121.215 270.352C121.391 269.917 121.369 269.398 121.166 269.198C120.964 268.998 120.82 269.353 120.846 269.988Z" fill="#8A6E5B" fill-opacity="0.7"/>
</svg>
