<svg width="308" height="308" viewBox="0 0 308 308" fill="none" xmlns="http://www.w3.org/2000/svg">
<path fill-rule="evenodd" clip-rule="evenodd" d="M165.066 307.343C164.031 306.686 161.397 306.686 161.397 307.343C161.397 307.626 162.399 307.854 163.624 307.85C165.256 307.844 165.642 307.708 165.066 307.343ZM154.058 307.66C154.058 307.552 153.468 307.352 152.747 307.216C152.027 307.081 151.437 307.17 151.437 307.414C151.437 307.658 152.027 307.857 152.747 307.857C153.468 307.857 154.058 307.768 154.058 307.66ZM148.64 307.331C147.823 307.09 146.872 307 146.527 307.13C146.182 307.26 144.964 307.03 143.819 306.619C141.773 305.883 142.229 305.557 144.999 305.776C145.638 305.826 146.569 305.644 147.066 305.371C147.859 304.935 147.759 304.748 146.249 303.846C144.402 302.743 140.666 302.789 139.643 303.927C138.846 304.814 135.711 304.778 135.711 303.881C135.711 303.321 136.108 303.227 137.349 303.495C138.471 303.737 139.123 303.633 139.418 303.164C139.746 302.643 138.946 302.266 136.076 301.586C131.411 300.481 131.486 300.484 131.85 301.418C132.22 302.363 130.708 303.024 129.807 302.31C129.451 302.027 128.097 301.639 126.8 301.447C124.022 301.038 119.274 299.529 119.024 298.976C118.928 298.763 118.142 298.59 117.277 298.59C115.314 298.59 115.527 299.523 117.741 300.619C118.632 301.061 119.623 301.829 119.943 302.328C120.481 303.166 120.295 303.212 117.503 302.946C114.614 302.67 114.55 302.689 116.054 303.375C118.183 304.347 121.757 304.987 121.338 304.32C121.148 304.019 121.679 303.826 122.628 303.852C123.65 303.881 123.995 304.046 123.57 304.305C122.669 304.852 122.918 304.981 126.276 305.715C133.251 307.239 153.229 308.683 148.64 307.331ZM174.501 306.828C175.114 306.439 174.969 306.327 173.846 306.321C173.054 306.316 172.405 306.545 172.405 306.828C172.405 307.478 173.476 307.478 174.501 306.828ZM135.086 305.244C134.844 304.529 133.958 304.529 133.715 305.244C133.612 305.549 133.92 305.798 134.401 305.798C134.881 305.798 135.19 305.549 135.086 305.244ZM186.155 304.253C186.515 303.687 187.018 303.224 187.272 303.224C187.527 303.224 187.441 303.571 187.082 303.996C186.55 304.626 186.579 304.768 187.237 304.768C188.773 304.768 189.641 304.18 189.32 303.357C189.049 302.664 189.354 302.592 191.4 302.868C193.307 303.125 193.862 303.024 194.115 302.378C194.348 301.781 194.204 301.65 193.574 301.888C193.102 302.066 192.45 302.007 192.126 301.757C191.331 301.143 188.655 300.696 188.655 301.177C188.655 301.389 187.888 301.935 186.951 302.391C184.971 303.354 183.413 304.483 183.413 304.954C183.413 305.738 185.56 305.19 186.155 304.253ZM132.042 304.253C132.638 303.874 132.417 303.752 131.124 303.746C130.187 303.742 129.421 303.97 129.421 304.253C129.421 304.907 131.012 304.907 132.042 304.253ZM126.309 302.648C126.727 301.88 126.525 301.811 124.563 302.052C121.493 302.429 121.032 303.066 123.652 303.312C125.31 303.467 125.95 303.307 126.309 302.648ZM111.074 301.679C110.642 301.405 109.816 301.193 109.239 301.209L108.191 301.237L109.239 301.679C109.816 301.923 110.642 302.134 111.074 302.15C111.773 302.175 111.773 302.123 111.074 301.679ZM115.923 301.338C115.562 301.195 114.972 301.195 114.612 301.338C114.252 301.481 114.547 301.598 115.268 301.598C115.988 301.598 116.283 301.481 115.923 301.338ZM107.096 299.944C106.944 299.555 107.188 298.877 107.636 298.436C108.659 297.432 108.715 296.706 107.707 297.528C106.792 298.273 103.507 297.759 102.641 296.734C102.307 296.339 101.651 296.014 101.181 296.013C100.712 296.011 99.6692 295.672 98.8645 295.259C98.0594 294.847 96.5261 294.359 95.4573 294.175C94.3879 293.991 93.0418 293.557 92.4652 293.211C91.0179 292.341 89.0579 291.899 89.0579 292.443C89.0579 292.69 88.2171 292.404 87.1897 291.809C85.9426 291.086 85.1474 290.898 84.7968 291.242C84.1965 291.832 88.2784 293.657 89.0925 293.163C89.362 293 89.5821 293.105 89.5821 293.398C89.5821 294.217 92.4814 295.501 94.3297 295.501C95.5375 295.501 95.9081 295.697 95.7015 296.226C95.516 296.7 95.9049 297.07 96.8249 297.295C97.5981 297.485 98.9389 297.963 99.8039 298.359C102.037 299.381 105.838 300.649 106.668 300.649C107.055 300.649 107.247 300.332 107.096 299.944ZM102.425 298.075C102.247 297.792 101.747 297.56 101.315 297.56C100.882 297.56 100.674 297.792 100.852 298.075C101.03 298.358 101.53 298.59 101.963 298.59C102.395 298.59 102.603 298.358 102.425 298.075ZM221.155 290.61C221.696 289.969 221.636 289.837 220.799 289.837C220.245 289.837 219.509 289.559 219.163 289.22C218.724 288.789 218.534 288.776 218.534 289.177C218.534 289.494 218.391 290.12 218.215 290.567C217.79 291.655 220.241 291.69 221.155 290.61ZM209.088 290.597C208.352 289.726 208.321 289.774 210.147 288.966C212.582 287.888 213.422 287.758 214.145 288.347C214.575 288.699 214.864 288.727 214.864 288.419C214.864 287.433 213.542 286.893 211.719 287.135C208.779 287.526 206.247 291.382 208.931 291.382C209.606 291.382 209.634 291.243 209.088 290.597ZM225.348 289.323C226.306 288.714 225.479 288.714 224.038 289.323C223.346 289.614 223.257 289.775 223.776 289.793C224.208 289.809 224.916 289.597 225.348 289.323ZM181.49 280.227C181.683 280.038 181.833 279.517 181.824 279.068C181.811 278.399 181.709 278.421 181.252 279.193C180.687 280.146 180.851 280.855 181.49 280.227ZM153.403 277.882C155.102 277.077 154.854 276.451 152.835 276.451C151.874 276.451 150.925 276.292 150.727 276.097C150.053 275.435 148.336 275.594 148.042 276.347C147.313 278.213 150.672 279.176 153.403 277.882ZM93.4601 277.566C93.6378 277.284 93.5492 276.449 93.2635 275.71C92.8342 274.601 92.5139 274.425 91.4184 274.695C90.664 274.881 89.7645 274.754 89.331 274.4C87.7233 273.09 87.3365 274.211 88.8425 275.817C90.4344 277.514 92.9039 278.45 93.4601 277.566ZM63.0501 277.625C63.2272 277.451 63.3725 276.86 63.3725 276.31C63.3725 275.622 63.6236 275.406 64.1797 275.615C65.2543 276.021 67.0418 274.879 67.0418 273.788C67.0418 273.308 66.57 272.769 65.9934 272.59C65.4168 272.41 64.945 272.047 64.945 271.783C64.945 271.519 64.3553 271.303 63.6346 271.303C62.1977 271.303 61.8691 272.051 63.1014 272.515C63.5439 272.682 63.7457 273.149 63.5695 273.6C63.1324 274.719 62.3241 274.584 62.3241 273.392C62.3241 272.842 62.0882 272.25 61.7999 272.075C61.5116 271.9 61.2757 271.293 61.2757 270.727C61.2757 270.161 61.0398 269.84 60.7515 270.015C60.4632 270.19 60.2273 270.088 60.2273 269.788C60.2273 269.489 59.9301 269.243 59.5673 269.243C59.2041 269.243 58.6123 268.78 58.2521 268.213C57.8517 267.584 57.0297 267.184 56.136 267.184C54.696 267.184 53.0548 266.247 51.402 264.481C50.9381 263.985 50.3389 263.58 50.0695 263.58C49.8006 263.58 48.8083 263.001 47.8647 262.295C46.8839 261.56 45.7963 261.142 45.3255 261.32C44.7337 261.543 44.5015 261.318 44.5015 260.521C44.5015 259.835 43.9144 259.082 42.9578 258.543C42.1086 258.064 41.3144 257.299 41.1928 256.843C40.9716 256.012 38.7354 255.091 38.7354 255.831C38.7354 256.352 44.3699 262.433 48.9572 266.862C53.9234 271.658 59.2591 275.612 59.7377 274.851C60.1471 274.201 61.2757 274.664 61.2757 275.482C61.2757 275.765 61.0398 275.854 60.7515 275.679C60.4632 275.504 60.2273 275.579 60.2273 275.847C60.2273 276.502 62.6443 278.024 63.0501 277.625ZM246.455 271.901C248.163 270.795 249.421 269.27 249.444 268.278C249.469 267.239 246.399 267.957 244.899 269.341C243.618 270.523 243.253 272.849 244.35 272.843C244.71 272.842 245.658 272.418 246.455 271.901ZM246.851 270.003C247.215 269.572 247.396 269.103 247.252 268.961C246.823 268.54 245.371 269.266 245.062 270.055C244.68 271.035 246.012 270.996 246.851 270.003ZM38.2112 254.632C38.2112 254.526 37.7981 254.12 37.2939 253.731C36.4625 253.091 36.4442 253.11 37.0957 253.926C37.7809 254.784 38.2112 255.056 38.2112 254.632ZM35.5902 251.768C35.5902 251.502 35.357 251.142 35.0718 250.969C34.7751 250.789 34.687 250.995 34.8658 251.454C35.2144 252.345 35.5902 252.509 35.5902 251.768ZM31.8606 245.156C32.1358 244.65 32.4524 243.451 32.5641 242.49C32.7601 240.803 33.2492 240.283 35.1971 239.692C36.4892 239.3 36.3377 237.91 34.935 237.287C32.616 236.256 31.3506 235.389 29.4655 233.537C28.4135 232.504 27.3505 231.658 27.103 231.658C26.8556 231.658 26.4273 231.075 26.1511 230.362C25.8754 229.649 25.0555 228.844 24.3295 228.573C22.552 227.909 22.6736 226.993 24.7169 225.649C26.6161 224.4 31.3967 224.119 31.3967 225.257C31.3967 226.209 34.8517 226.665 36.2382 225.895C36.8908 225.533 38.2049 225.208 39.1584 225.174C41.7464 225.082 42.2564 224.309 41.1849 222.103C40.1151 219.9 40.3824 219.302 42.4356 219.302C43.6083 219.302 43.9773 219.539 43.9773 220.294C43.9773 221.493 46.6502 222.931 48.1593 222.543C49.7025 222.147 49.5039 221.656 46.667 218.854L44.1141 216.334L44.555 213.595C44.9009 211.446 44.8297 210.675 44.2237 210.017C43.3074 209.023 43.7005 208.49 45.3496 208.49C46.008 208.49 47.8553 208.155 49.4546 207.746C52.1684 207.052 52.5222 207.071 54.7605 208.044C57.0025 209.018 57.2729 209.033 58.9032 208.273C61.087 207.256 61.6662 207.255 62.702 208.273C63.4558 209.013 63.4453 209.07 62.5877 208.916C60.8595 208.606 61.1871 209.951 63.3394 212.003C64.511 213.119 65.4692 214.284 65.4692 214.59C65.4692 214.896 65.9468 215.398 66.5302 215.705C67.3967 216.16 67.9576 216.003 69.5967 214.846C70.6996 214.067 71.8172 212.955 72.0798 212.376C72.3781 211.718 72.9484 211.382 73.6 211.483C75.5778 211.789 77.4234 211.568 79.2896 210.803C80.3191 210.38 81.9472 210.034 82.9081 210.034C83.8689 210.034 84.9304 209.764 85.268 209.432C85.7361 208.972 86.3656 208.987 87.9293 209.494C89.7708 210.091 90.4753 210.019 94.9048 208.785C100.072 207.345 105.553 207.1 105.077 208.33C104.945 208.675 105.609 209.193 106.594 209.512C108.041 209.981 108.88 209.896 111.396 209.027C113.073 208.449 114.807 207.968 115.249 207.959C115.692 207.95 117.233 207.373 118.675 206.677C120.144 205.967 122.232 205.408 123.425 205.405C124.824 205.402 125.94 205.048 126.679 204.371C127.298 203.805 128.076 203.341 128.408 203.341C128.796 203.341 128.888 202.862 128.665 201.992C128.345 200.736 128.417 200.667 129.724 200.988C130.774 201.247 131.382 201.066 132.14 200.267C132.716 199.66 133.422 199.363 133.776 199.578C134.784 200.19 137.413 199.725 139.269 198.608C140.432 197.907 141.601 197.639 142.864 197.784C144.428 197.964 144.826 197.801 145.293 196.795C146.229 194.778 145.288 194.498 140.403 195.335C137.808 195.78 135.791 195.903 135.516 195.633C134.901 195.029 135.547 193.398 136.235 193.816C136.527 193.994 137.414 193.699 138.205 193.161C138.996 192.622 140.056 192.036 140.56 191.857C141.064 191.678 141.477 191.069 141.477 190.504C141.477 189.137 138.653 186.351 137.267 186.351C136.661 186.351 135.724 186.119 135.184 185.835C134.517 185.484 134.093 185.492 133.861 185.86C133.648 186.2 132.848 185.899 131.728 185.06C130.217 183.928 129.886 183.843 129.622 184.519C129.45 184.96 128.988 185.321 128.597 185.321C128.205 185.321 127.626 185.796 127.31 186.376C126.925 187.084 126.417 187.331 125.763 187.127C125.229 186.961 124.64 187.065 124.454 187.36C124.061 187.985 121.558 188.092 121.558 187.484C121.558 187.257 121.841 186.794 122.187 186.454C122.676 185.974 122.579 185.836 121.75 185.836C120.276 185.836 119.929 185.357 120.561 184.197C120.895 183.585 121.536 183.268 122.246 183.364C123.149 183.486 123.427 183.226 123.555 182.138C123.703 180.879 123.563 180.76 121.982 180.796C121.028 180.817 119.304 180.659 118.151 180.445C116.997 180.23 115.172 180.013 114.093 179.962C112.898 179.904 111.864 179.508 111.445 178.945C111.067 178.437 110.416 178.085 109.998 178.163C108.459 178.451 104.851 177.495 104.004 176.576C103.157 175.657 103.05 175.659 100.419 176.662C98.9274 177.231 97.0518 178.039 96.2509 178.458C94.5661 179.338 91.6789 178.94 91.6789 177.828C91.6789 176.283 88.9929 175.705 82.4038 175.832C77.5555 175.926 75.723 176.154 74.8172 176.777C73.3552 177.783 72.4688 177.82 71.9168 176.899C70.9329 175.257 62.8939 174.054 59.9343 175.105C58.8864 175.478 58.0823 176.172 57.9072 176.857C57.6184 177.989 55.0147 178.962 54.4627 178.144C54.3175 177.929 53.8452 177.74 53.4128 177.723C52.9803 177.706 51.4827 177.559 50.0847 177.399C47.8569 177.142 47.5088 177.232 47.2713 178.125C46.9878 179.189 45.5499 179.564 45.5499 178.573C45.5499 178.237 45.0619 178.122 44.3663 178.293C43.7152 178.454 42.8367 178.375 42.4142 178.119C41.9377 177.83 41.5204 177.852 41.3155 178.178C41.1336 178.468 40.0286 178.915 38.8596 179.173C36.1228 179.777 32.1306 178.208 31.3637 176.226C31.0864 175.51 30.3907 174.804 29.8178 174.657C28.5498 174.331 28.4785 173.549 29.6407 172.714C30.4442 172.137 30.4442 171.973 29.6407 170.39C28.5257 168.195 28.5467 167.995 29.9321 167.639C30.5685 167.476 30.9317 167.188 30.7393 166.999C30.5475 166.81 30.7247 166.021 31.133 165.245C31.7746 164.026 31.7741 163.701 31.1288 162.865C30.7179 162.331 30.374 161.605 30.3651 161.252C30.3373 160.193 31.9969 160.525 32.2931 161.638C32.7151 163.223 33.4085 162.862 33.7912 160.86C33.981 159.866 34.3636 158.914 34.6409 158.746C35.2757 158.361 33.0437 155.974 32.0477 155.974C31.6415 155.974 31.4077 155.685 31.5277 155.331C31.8459 154.394 45.0682 154.426 46.2219 155.366C46.808 155.844 47.3411 155.896 48.0157 155.541C48.715 155.173 49.6024 155.318 51.282 156.074C53.1344 156.909 54.7065 157.116 59.279 157.128C62.4095 157.136 65.0965 157.343 65.2506 157.589C65.7591 158.396 66.5176 158.052 66.5176 157.014C66.5176 156.318 66.9752 155.898 67.9591 155.691C70.2551 155.209 71.8413 154.461 71.5499 153.998C71.4026 153.764 71.9787 153.572 72.831 153.572C73.6833 153.572 74.3805 153.786 74.3805 154.048C74.3805 154.544 79.7666 154.206 80.6787 153.653C80.9628 153.48 81.195 152.622 81.195 151.745C81.195 150.234 81.2448 150.196 82.1538 151.003C83.3301 152.049 84.0257 152.105 83.642 151.123C83.426 150.569 83.6975 150.452 84.7543 150.639C85.5233 150.776 86.3311 151.164 86.5486 151.501C86.7688 151.841 86.9485 151.253 86.9533 150.182C86.9575 149.12 87.197 148.252 87.4853 148.252C87.7736 148.252 88.0095 148.483 88.0095 148.766C88.0095 149.571 88.9111 149.37 89.2555 148.488C89.4259 148.053 89.2959 147.272 88.9667 146.755C88.1888 145.531 88.7534 144.133 90.0256 144.133C90.576 144.133 91.3067 143.801 91.6495 143.395C91.9923 142.989 92.6701 142.674 93.1555 142.695C93.6409 142.715 94.6956 142.556 95.4997 142.341C96.3044 142.127 96.925 142.153 96.8794 142.399C96.8338 142.644 96.828 143.193 96.8668 143.618C96.9281 144.292 96.9984 144.295 97.423 143.635C97.7291 143.16 97.7092 142.644 97.37 142.242C97.0733 141.89 96.9947 141.343 97.1955 141.024C97.4356 140.641 98.0845 140.937 99.0999 141.893C100.2 142.928 100.753 143.163 101.034 142.715C101.251 142.371 102.184 141.94 103.106 141.759C104.431 141.499 104.784 141.602 104.784 142.248C104.784 142.698 105.24 143.306 105.797 143.6C107.253 144.365 107.518 144.267 107.143 143.103C106.661 141.611 107.246 141.84 108.132 143.489L108.893 144.905L109.499 143.36L110.105 141.816L110.832 143.103C111.265 143.87 111.438 145.064 111.26 146.058C111.038 147.286 111.175 147.807 111.775 148.033C112.834 148.432 115.16 146.744 115.368 145.425C115.457 144.862 115.984 144.315 116.54 144.211C117.095 144.107 117.963 143.526 118.468 142.919C119.205 142.034 119.519 141.943 120.053 142.459C121.614 143.967 123.224 142.11 122.117 140.078C121.717 139.343 121.774 138.613 122.329 137.356C122.748 136.411 123.098 136.014 123.11 136.476C123.121 136.937 123.505 137.619 123.962 137.991C124.511 138.439 124.697 139.145 124.509 140.069C124.181 141.676 125.266 142.881 126.591 142.382C127.135 142.177 127.344 141.689 127.169 141.031C126.845 139.816 128.516 138.703 130.338 138.918C131.283 139.03 131.518 138.803 131.518 137.777C131.518 137.072 131.222 136.379 130.862 136.236C130.457 136.075 130.544 135.961 131.089 135.936C131.574 135.914 132.121 136.358 132.304 136.925C132.517 137.583 133.097 137.954 133.912 137.954C134.613 137.954 135.187 138.186 135.187 138.469C135.187 139.378 136.154 139.019 136.487 137.985C136.906 136.689 139.675 136.377 141.608 137.408C143.251 138.283 143.481 138.981 142.132 138.992C140.696 139.004 139.838 139.758 140.201 140.689C140.454 141.336 140.764 141.418 141.495 141.034C142.795 140.351 143.05 140.395 143.05 141.301C143.05 142.445 144.07 142.237 144.537 140.998C144.901 140.032 145.011 140.006 145.632 140.741C146.013 141.19 146.648 141.558 147.045 141.558C147.947 141.558 148.003 143.439 147.112 143.792C146.706 143.952 146.791 144.067 147.337 144.092C148.405 144.141 149.864 142.796 149.864 141.761C149.864 141.175 150.09 141.126 150.878 141.54C151.436 141.833 152.545 142.073 153.342 142.073C154.469 142.073 154.652 141.936 154.163 141.455C153.309 140.617 153.364 138.469 154.239 138.469C154.628 138.469 155.63 138.804 156.467 139.212C158.321 140.117 164.233 140.012 165.19 139.057C165.725 138.523 165.65 138.23 164.804 137.532C164.227 137.056 163.755 136.223 163.755 135.68C163.755 135.138 163.425 134.585 163.02 134.453C162.453 134.268 162.36 134.576 162.61 135.806C163.008 137.758 162.377 138.222 160.584 137.299C159.374 136.677 159.314 136.524 160.047 135.926C160.914 135.221 161.213 134.083 160.403 134.575C160.144 134.731 159.418 134.45 158.789 133.949L157.644 133.039L158.764 132.044C159.658 131.249 160.073 131.167 160.835 131.633C161.694 132.161 161.732 132.104 161.224 131.045C160.718 129.992 160.455 129.919 158.636 130.32C157.523 130.565 156.407 130.642 156.157 130.491C155.907 130.339 155.555 130.45 155.374 130.738C154.816 131.623 153.808 131.32 153.265 130.103C152.907 129.301 152.213 128.894 151.012 128.781C149.567 128.644 149.304 128.429 149.439 127.494C149.548 126.744 150.038 126.31 150.913 126.189C151.633 126.09 152.341 125.855 152.485 125.668C152.629 125.48 153.879 124.766 155.262 124.082C157.644 122.903 158.809 122.716 166.376 122.305C168.106 122.212 169.639 122.083 169.784 122.021C171.784 121.157 176.329 121.282 177.824 122.244C178.951 122.969 179.124 122.95 180.001 121.998C180.99 120.925 182.364 120.605 182.364 121.448C182.364 122.72 187.214 122.647 202.695 121.137C204.268 120.984 205.747 121.097 206.12 121.401C206.551 121.752 207.487 121.773 208.854 121.462C209.997 121.202 211.699 121.126 212.636 121.292C213.997 121.533 214.34 121.841 214.34 122.823C214.34 124.076 215.064 124.471 215.651 123.538C215.829 123.255 216.684 123.024 217.551 123.024C218.417 123.024 219.578 122.787 220.129 122.497C220.855 122.115 221.656 122.186 223.041 122.754C225.166 123.626 228.27 123.795 228.73 123.064C228.894 122.803 231.021 122.63 233.456 122.678C237.121 122.751 238.008 122.933 238.605 123.736C239.238 124.586 239.552 124.631 241.169 124.107C243.016 123.509 244.743 123.76 244.743 124.627C244.743 125.187 251.452 124.73 254.568 123.958C256.269 123.536 256.98 123.559 257.589 124.056C258.766 125.016 261.517 125.226 261.517 124.355C261.517 123.502 262.935 122.876 263.356 123.544C263.52 123.806 263.174 124.315 262.586 124.675C261.427 125.386 261.058 127.936 262.173 127.527C266.537 125.931 270.593 125.091 271.272 125.645C271.724 126.013 272.047 125.951 272.352 125.438C272.94 124.452 276.345 123.956 275.972 124.911C275.78 125.404 276.228 125.598 277.556 125.598C278.575 125.598 279.87 125.84 280.433 126.136C281.186 126.532 282.29 126.446 284.588 125.812C287.013 125.144 287.886 125.087 288.463 125.556C288.885 125.901 289.334 125.96 289.502 125.693C289.665 125.435 290.701 125.224 291.806 125.224C293.736 125.224 293.806 125.284 293.586 126.754C293.358 128.281 293.363 128.284 295.468 127.935C296.781 127.717 297.71 127.793 297.926 128.136C298.117 128.439 297.924 128.687 297.497 128.687C297.049 128.687 296.564 129.39 296.349 130.353C295.848 132.592 294.689 134.236 293.316 134.657C292.692 134.848 292.034 135.231 291.852 135.509C291.671 135.786 290.522 135.06 289.299 133.895C288.077 132.73 286.869 131.776 286.615 131.776C286.362 131.776 286.155 131.429 286.155 131.004C286.155 130.528 285.663 130.232 284.875 130.232C284.171 130.232 283.45 130 283.271 129.717C283.093 129.434 282.471 129.202 281.889 129.202C280.984 129.202 280.88 129.428 281.175 130.746C281.524 132.309 281.253 132.513 278.947 132.429C278.162 132.401 278.162 132.402 278.787 134.019C279.156 134.972 279.088 135.459 278.525 135.918C277.892 136.434 277.767 136.276 277.767 134.958C277.767 133.071 276.993 132.43 276.243 133.696C275.909 134.26 275.696 134.349 275.686 133.93C275.668 133.135 273.723 133.564 272.598 134.61C272.022 135.147 272.004 135.629 272.505 137.122C273.358 139.661 273.897 139.817 274.986 137.843L275.919 136.152L276.188 138.469C276.412 140.402 276.642 140.789 277.576 140.803C278.192 140.812 279.115 141.159 279.627 141.575C280.341 142.154 280.611 142.18 280.779 141.687C280.901 141.333 281.334 141.044 281.742 141.044C282.528 141.044 282.707 140.26 282.527 137.62C282.465 136.728 282.624 135.871 282.879 135.716C283.135 135.561 283.242 136.117 283.117 136.952C282.862 138.661 283.802 139.042 284.32 137.44C284.503 136.873 284.854 136.41 285.1 136.41C285.346 136.41 285.72 135.657 285.933 134.737L286.318 133.063L286.752 134.608C287.222 136.279 286.905 137.954 286.119 137.954C285.85 137.954 285.63 138.526 285.63 139.226C285.63 140.144 285.412 140.414 284.844 140.2C284.264 139.981 284.058 140.271 284.058 141.306C284.058 142.527 284.228 142.676 285.381 142.46C287.215 142.115 287.404 142.738 285.888 144.136C285.092 144.87 284.001 145.303 283.012 145.275C281.135 145.223 281.348 145.816 283.603 146.921C284.891 147.552 285.707 147.608 287.585 147.196C290.025 146.659 291.898 146.936 292.568 147.935C292.809 148.293 292.956 148.171 292.961 147.608C292.965 147.113 293.303 146.707 293.712 146.707C294.12 146.707 294.93 146.07 295.511 145.291C296.359 144.155 296.699 144.002 297.232 144.519C297.598 144.873 298.302 145.162 298.796 145.162C299.291 145.162 299.788 145.432 299.899 145.761C300.011 146.09 300.503 146.438 300.991 146.533C302.274 146.784 303.674 147.125 303.977 147.26C304.788 147.622 307.662 147.401 307.814 146.964C308.102 146.139 307.206 135.621 306.321 129.459C304.814 118.962 299.372 100.369 295.62 92.9044C295.051 91.7717 293.625 88.6877 292.452 86.0506C288.788 77.8123 281.569 66.7341 273.405 56.817C250.719 29.2607 221.167 11.0497 187.082 3.62134C170.147 -0.0691528 154.177 -0.926361 138.07 0.991455C124.643 2.59009 116.921 4.25409 105.602 7.98837C61.0524 22.686 25.574 57.269 9.30353 101.856C1.68491 122.734 -1.59811 148.426 0.743469 168.846C3.58774 193.652 8.69547 209.578 20.6439 230.896C23.3902 235.796 30.3362 246.074 30.9013 246.074C31.1535 246.074 31.5849 245.661 31.8606 245.156ZM35.5902 225.02C35.5902 224.768 35.217 224.42 34.761 224.248C33.5894 223.806 33.4935 223.841 33.4935 224.708C33.4935 225.137 33.9595 225.48 34.5418 225.48C35.1185 225.48 35.5902 225.273 35.5902 225.02ZM49.2192 224.193C49.2192 223.653 48.6657 223.421 47.3846 223.421C46.1034 223.421 45.5499 223.653 45.5499 224.193C45.5499 224.733 46.1034 224.965 47.3846 224.965C48.6657 224.965 49.2192 224.733 49.2192 224.193ZM89.0579 215.52C89.0579 215.139 88.5804 214.404 87.9969 213.885C87.1514 213.133 86.806 213.072 86.2933 213.584C85.7843 214.093 85.908 214.433 86.8883 215.22C88.3398 216.385 89.0579 216.484 89.0579 215.52ZM79.5218 214.115C79.4185 213.81 79.1098 213.561 78.8362 213.561C78.5625 213.561 78.2538 213.81 78.1505 214.115C78.0472 214.419 78.3555 214.668 78.8362 214.668C79.3168 214.668 79.6251 214.419 79.5218 214.115ZM199.761 208.653C199.383 208.504 198.93 208.523 198.756 208.694C198.582 208.865 198.892 208.986 199.444 208.964C200.055 208.939 200.179 208.817 199.761 208.653ZM224.431 204.016C224.936 203.887 225.348 203.561 225.348 203.292C225.348 203.024 225.937 202.541 226.658 202.218C227.378 201.896 228.569 200.625 229.303 199.394C230.038 198.163 231.218 196.783 231.925 196.328C232.632 195.872 233.211 195.179 233.211 194.787C233.211 194.395 233.43 194.074 233.698 194.074C233.965 194.074 234.573 193.692 235.049 193.224C235.853 192.436 235.902 192.442 235.742 193.312C235.475 194.764 241.047 196.301 244.219 195.649C246.887 195.102 248.937 195.951 248.937 197.604C248.937 199.218 249.599 199.272 250.55 197.736C251.634 195.985 254.458 193.822 256.201 193.406C257.812 193.022 259.945 193.835 259.945 194.833C259.945 195.265 260.164 195.618 260.432 195.618C262.248 195.618 263.232 199.069 261.758 200.27C261.24 200.692 261.13 201.107 261.453 201.424C261.776 201.742 262.774 201.478 264.227 200.69C265.914 199.777 266.861 198.756 267.911 196.716C269.412 193.8 270.649 192.573 272.114 192.546C273.988 192.511 274.757 196.109 273.231 197.766C272.754 198.284 272.592 198.708 272.871 198.708C273.715 198.708 276.944 194.118 277.519 192.1C277.983 190.473 278.295 190.19 279.781 190.049C281.886 189.848 282.996 190.668 283.051 192.463C283.073 193.208 283.211 193.527 283.356 193.173C283.733 192.256 285.603 192.375 285.98 193.34C286.198 193.898 286.683 194.055 287.536 193.845C288.594 193.584 288.775 193.73 288.775 194.836C288.775 196.564 289.984 196.496 290.898 194.717C291.297 193.939 292.222 192.8 292.952 192.186L294.279 191.07L294.563 192.186C295.08 194.222 296.826 193.813 299.035 191.139C300.158 189.779 301.906 187.78 302.92 186.694C305.236 184.216 305.842 183.054 306.275 180.27C306.734 177.32 306.396 176.937 304.147 177.86C303.118 178.283 301.458 178.628 300.458 178.628C299.432 178.628 298.057 179.078 297.306 179.658C295.712 180.889 294.161 180.974 292.948 179.897C292.459 179.462 291.261 179.025 290.286 178.927C288.152 178.711 286.702 178.196 285.584 177.259C284.873 176.662 284.614 176.71 283.799 177.594C283.276 178.163 282.456 178.628 281.978 178.628C281.501 178.628 280.587 179.323 279.947 180.173C279.282 181.056 278.302 181.717 277.658 181.717C277.038 181.717 275.795 182.507 274.895 183.472C273.17 185.321 270.167 186.429 266.592 186.534C265.046 186.58 264.373 186.309 263.635 185.348C262.747 184.192 262.358 184.107 258.222 184.162C253.706 184.223 249.461 185.01 249.461 185.786C249.461 186.366 245.642 188.925 244.777 188.925C244.27 188.925 244.156 188.379 244.355 186.919C244.622 184.967 244.601 184.936 243.59 185.76C243.018 186.227 242.342 187.129 242.087 187.767C241.749 188.613 241.196 188.925 240.039 188.925C238.014 188.925 237.991 188 239.999 187.313C241.609 186.761 242.281 185.408 242.822 181.626C243.07 179.89 242.963 179.687 241.533 179.198C239.682 178.564 236.72 179.019 237.059 179.886C237.224 180.31 236.144 180.502 233.405 180.535C231.266 180.561 229.198 180.842 228.809 181.159C227.766 182.009 226.298 181.288 226.679 180.112C226.899 179.429 226.735 179.143 226.121 179.143C225.642 179.143 225.126 179.606 224.976 180.173C224.818 180.767 224.261 181.202 223.659 181.202C223.085 181.202 221.722 181.897 220.63 182.747C218.557 184.36 217.692 184.638 217.398 183.785C217.294 183.483 216.111 183.408 214.471 183.599C212.254 183.858 211.719 184.106 211.719 184.878C211.719 185.421 212.117 185.867 212.636 185.906C213.141 185.944 214.497 186.021 215.651 186.076C216.804 186.131 218.279 186.348 218.93 186.557C219.872 186.86 220.212 186.694 220.6 185.743C221.074 184.584 221.202 184.621 221.362 185.965C221.537 187.434 227.371 185.983 228.989 184.068C229.363 183.625 230.408 183.256 231.309 183.25C232.211 183.243 233.81 183.041 234.861 182.801C237.174 182.273 237.935 182.661 238.131 184.468C238.213 185.221 238.437 185.992 238.629 186.18C239.325 186.864 238.945 187.306 237.369 187.646C236.485 187.836 235.601 188.417 235.404 188.937C235.049 189.872 231.497 192.529 230.602 192.529C230.345 192.529 230.061 193.149 229.969 193.906C229.757 195.674 228.891 195.948 228.218 194.462C227.856 193.662 227.312 193.343 226.467 193.433C225.676 193.518 224.877 193.11 224.212 192.28C223.235 191.059 223.105 191.033 221.665 191.764C219.817 192.703 216.093 192.913 215.29 192.124C214.561 191.408 212.767 192.234 212.767 193.285C212.767 193.681 212.318 194.145 211.767 194.316C211.217 194.488 210.635 194.967 210.474 195.381C210.283 195.868 209.438 196.133 208.08 196.133C206.317 196.133 205.862 195.906 205.244 194.717C204.839 193.939 204.623 192.556 204.764 191.645C205.002 190.097 204.92 189.992 203.52 190.044C202.696 190.074 200.751 189.836 199.198 189.512C195.713 188.788 190.402 188.746 189.965 189.44C189.787 189.723 188.984 189.955 188.18 189.955C186.669 189.955 183.663 191.2 183.13 192.047C182.963 192.312 182.361 192.529 181.791 192.529C180.731 192.529 178.215 193.889 177.523 194.834C176.785 195.844 177.131 196.631 178.457 196.958C180.11 197.365 180.631 196.927 179.743 195.876C178.836 194.802 179.543 194.218 180.808 194.994C182.124 195.802 184.074 195.792 184.907 194.975C185.653 194.241 186.676 194.092 192.716 193.836C195.093 193.736 197.158 193.843 197.304 194.074C197.732 194.755 196.992 196.133 196.199 196.133C194.551 196.133 195.625 197.056 197.642 197.373C198.837 197.56 200.465 198.169 201.261 198.726C202.057 199.282 203.068 199.737 203.509 199.737C204.063 199.737 204.296 200.222 204.265 201.306C204.201 203.505 204.996 204.127 207.11 203.532C209.244 202.933 210.616 200.594 209.689 199.136C209.16 198.304 209.266 198.193 210.593 198.193C211.42 198.193 212.935 197.634 213.96 196.951C215.697 195.793 217.688 195.364 220.481 195.544C222.033 195.644 223.041 197.459 222.137 198.528C221.557 199.215 221.414 199.162 220.993 198.109C220.704 197.389 220.412 197.164 220.265 197.549C220.13 197.903 219.685 198.193 219.276 198.193C218.868 198.193 218.534 198.522 218.534 198.925C218.534 199.329 217.923 200.371 217.176 201.242L215.819 202.826H218C219.24 202.826 220.52 203.16 220.967 203.599C221.745 204.363 222.653 204.472 224.431 204.016ZM215.126 203.341C215.305 203.058 215.214 202.826 214.926 202.826C214.638 202.826 214.256 203.058 214.078 203.341C213.9 203.624 213.99 203.856 214.278 203.856C214.567 203.856 214.948 203.624 215.126 203.341ZM135.711 202.374C135.711 202.126 135.378 201.652 134.971 201.32C134.15 200.65 133.31 201.411 133.876 202.312C134.276 202.946 135.711 202.995 135.711 202.374ZM133.09 202.312C133.09 202.028 132.854 201.797 132.566 201.797C132.278 201.797 132.042 202.028 132.042 202.312C132.042 202.595 132.278 202.826 132.566 202.826C132.854 202.826 133.09 202.595 133.09 202.312ZM120.68 202.308C122.36 202.097 124 201.664 124.324 201.346C124.647 201.028 125.419 200.767 126.037 200.767C127.149 200.767 129.312 198.944 128.799 198.44C128.4 198.048 124.703 199.676 124.703 200.244C124.703 200.797 119.181 200.623 117.783 200.027C116.635 199.537 115.792 200.059 115.792 201.257C115.792 201.993 117.085 203.106 117.538 202.759C117.587 202.722 119.001 202.519 120.68 202.308ZM101.901 202.312C102.079 202.028 101.843 201.797 101.376 201.797C100.91 201.797 100.674 202.028 100.852 202.312C101.03 202.595 101.266 202.826 101.376 202.826C101.487 202.826 101.722 202.595 101.901 202.312ZM208.744 201.411C209.087 200.838 208.165 198.708 207.573 198.708C206.651 198.708 206.43 199.677 207.11 200.746C207.808 201.844 208.352 202.064 208.744 201.411ZM190.991 199.258C191.157 198.994 191.053 198.633 190.76 198.455C190.467 198.278 190.227 198.493 190.227 198.935C190.227 199.839 190.542 199.972 190.991 199.258ZM258.896 198.193C258.896 197.91 258.661 197.678 258.372 197.678C258.084 197.678 257.848 197.91 257.848 198.193C257.848 198.476 258.084 198.708 258.372 198.708C258.661 198.708 258.896 198.476 258.896 198.193ZM149.862 196.786C152.163 196.507 153.122 195.747 152.724 194.516C152.357 193.381 153.285 193.21 153.723 194.331C154.117 195.339 155.322 195.317 156.192 194.287C156.879 193.475 157.364 193.481 161.79 194.365C162.899 194.587 163.493 194.506 163.493 194.132C163.493 193.817 163.951 193.559 164.511 193.559C166.17 193.559 166.294 192.568 164.704 192.01C163.894 191.726 162.642 191.173 161.921 190.783C160.926 190.245 160.39 190.213 159.694 190.654C159.008 191.09 158.522 191.077 157.75 190.603C156.558 189.872 155.106 190.254 155.106 191.297C155.106 191.7 154.584 192.014 153.913 192.014C153.256 192.014 152.175 192.389 151.51 192.846C150.641 193.444 149.718 193.585 148.216 193.349L146.13 193.022L146.294 194.959C146.469 197.036 146.722 197.166 149.862 196.786ZM282.304 195.339C282.475 194.902 282.483 194.415 282.323 194.258C281.863 193.807 280.913 194.571 280.913 195.391C280.913 196.379 281.913 196.341 282.304 195.339ZM203.332 195.649C203.332 195.382 203.096 195.021 202.808 194.846C202.52 194.671 202.284 194.889 202.284 195.331C202.284 195.772 202.52 196.133 202.808 196.133C203.096 196.133 203.332 195.916 203.332 195.649ZM174.141 195.801C174.825 195.129 174.498 194.589 173.409 194.589C172.799 194.589 172.409 194.859 172.525 195.2C172.78 195.953 173.655 196.278 174.141 195.801ZM173.977 191.757C174.508 191.129 174.483 190.985 173.844 190.985C173.411 190.985 172.764 191.332 172.405 191.757C171.874 192.385 171.899 192.529 172.538 192.529C172.971 192.529 173.618 192.182 173.977 191.757ZM131.272 190.212C131.407 189.788 131.628 189.093 131.763 188.668C131.898 188.243 131.827 187.896 131.606 187.896C130.88 187.896 129.945 189.112 129.945 190.058C129.945 191.179 130.928 191.293 131.272 190.212ZM304.501 188.38C304.501 188.08 304.265 187.978 303.977 188.153C303.689 188.328 303.453 188.573 303.453 188.698C303.453 188.823 303.689 188.925 303.977 188.925C304.265 188.925 304.501 188.68 304.501 188.38ZM150.913 188.41C150.913 188.127 150.677 187.896 150.389 187.896C150.1 187.896 149.864 188.127 149.864 188.41C149.864 188.694 150.1 188.925 150.389 188.925C150.677 188.925 150.913 188.694 150.913 188.41ZM109.239 188.41C109.418 188.127 109.327 187.896 109.039 187.896C108.751 187.896 108.369 188.127 108.191 188.41C108.013 188.694 108.103 188.925 108.391 188.925C108.68 188.925 109.061 188.694 109.239 188.41ZM187.082 187.526C187.082 186.433 188.396 185.654 189.747 185.947C190.153 186.035 190.437 185.579 190.456 184.806C190.504 182.931 191.912 183.206 192.437 185.193L192.878 186.866H196.795C198.949 186.866 200.707 186.692 200.703 186.48C200.679 185.324 199.528 184.635 197.484 184.552C194.173 184.416 194.206 184.43 193.194 182.747C192.481 181.562 191.888 181.202 190.649 181.202C188.697 181.202 187.467 182.559 188.199 183.903C188.596 184.631 188.437 184.914 187.416 185.295C185.64 185.958 185.234 186.816 186.234 187.798C187.015 188.565 187.082 188.544 187.082 187.526ZM170.531 187.957C170.717 187.661 169.803 187.31 168.352 187.121C166.977 186.942 165.322 186.54 164.673 186.228C163.781 185.8 163.174 185.83 162.183 186.351C160.314 187.333 160.557 187.77 162.991 187.803C164.156 187.819 166.257 187.975 167.66 188.149C169.147 188.335 170.344 188.255 170.531 187.957ZM210.933 185.836C211.111 185.553 211.007 185.321 210.702 185.321C210.397 185.321 210.147 185.553 210.147 185.836C210.147 186.119 210.25 186.351 210.378 186.351C210.505 186.351 210.755 186.119 210.933 185.836ZM116.84 185.579C116.84 185.154 116.486 184.806 116.054 184.806C115.621 184.806 115.268 185.154 115.268 185.579C115.268 186.003 115.621 186.351 116.054 186.351C116.486 186.351 116.84 186.003 116.84 185.579ZM185.232 183.802C185.684 183.083 185.107 182.232 184.168 182.232C183.206 182.232 183.198 182.961 184.152 183.739C184.658 184.151 184.999 184.171 185.232 183.802ZM118.862 183.833C119.308 183.555 119.375 183.27 119.04 183.067C118.322 182.631 116.772 183.252 117.136 183.831C117.496 184.403 117.946 184.403 118.862 183.833ZM92.439 168.984C92.6434 168.461 92.5165 168.005 92.1318 167.878C91.7711 167.761 90.9445 167.142 90.294 166.503C88.984 165.216 83.6619 162.668 82.2848 162.668C81.801 162.668 81.1484 162.416 80.8349 162.108C80.4245 161.705 80.1655 161.706 79.9102 162.112C79.7157 162.421 79.9836 162.833 80.5068 163.026C81.0294 163.219 82.0825 164.028 82.8468 164.824C83.611 165.62 84.7737 166.272 85.4305 166.272C86.1256 166.272 87.327 167.025 88.3052 168.074C90.121 170.021 91.8828 170.409 92.439 168.984ZM31.3967 159.548C31.3967 159.248 31.1608 159.146 30.8725 159.321C30.5842 159.496 30.3483 159.741 30.3483 159.866C30.3483 159.991 30.5842 160.093 30.8725 160.093C31.1608 160.093 31.3967 159.848 31.3967 159.548ZM28.5136 157.004C28.6919 156.721 28.456 156.489 27.9894 156.489C27.5229 156.489 27.287 156.721 27.4652 157.004C27.6435 157.287 27.8794 157.519 27.9894 157.519C28.0995 157.519 28.3354 157.287 28.5136 157.004ZM84.5032 148.874C85.6926 147.583 85.6197 146.707 84.3239 146.707C83.0685 146.707 82.4861 147.849 83.1487 149.012C83.5701 149.751 83.708 149.737 84.5032 148.874ZM109.52 146.943C110.049 146.316 110.056 146.017 109.549 145.527C109.046 145.04 108.743 145.122 108.156 145.904C107.743 146.454 107.405 147.091 107.405 147.32C107.405 148.03 108.814 147.778 109.52 146.943ZM77.0015 147.285C77.0015 147.036 76.6686 146.562 76.2618 146.23C75.4404 145.56 74.6001 146.321 75.1668 147.222C75.5662 147.856 77.0015 147.906 77.0015 147.285ZM289.431 145.604C289.07 145.247 288.775 144.52 288.775 143.987C288.775 143.44 288.49 143.111 288.12 143.232C286.976 143.607 287.407 145.281 288.775 145.776C289.826 146.157 289.956 146.123 289.431 145.604ZM266.633 143.6C268.197 142.983 269.342 140.627 268.366 140.034C267.985 139.803 267.812 139.394 267.981 139.126C268.332 138.567 265.696 138.614 264.758 139.183C264.417 139.39 264.138 139.893 264.138 140.302C264.138 141.429 262.159 141.188 261.78 140.014C261.411 138.874 260.469 138.607 260.469 139.642C260.469 140.432 261.939 142.601 263.066 143.473C264.017 144.209 265.001 144.244 266.633 143.6ZM265.703 142.717C265.707 142.079 265.475 141.558 265.187 141.558C264.53 141.558 264.53 142.105 265.187 143.103C265.598 143.727 265.696 143.653 265.703 142.717ZM233.473 142.588C233.651 142.305 233.415 142.073 232.949 142.073C232.482 142.073 232.246 142.305 232.425 142.588C232.603 142.871 232.839 143.103 232.949 143.103C233.059 143.103 233.295 142.871 233.473 142.588ZM201.628 140.833C202.983 139.43 203.151 138.469 202.042 138.469C201.113 138.469 199.138 140.461 199.138 141.398C199.138 142.449 200.33 142.179 201.628 140.833ZM228.231 141.044C228.053 140.76 227.685 140.529 227.414 140.529C227.142 140.529 226.921 140.76 226.921 141.044C226.921 141.327 227.289 141.558 227.738 141.558C228.187 141.558 228.409 141.327 228.231 141.044ZM215.713 140.811C216.144 139.707 215.437 138.9 214.34 139.242C213.812 139.406 213.228 139.3 213.043 139.005C212.857 138.71 212.029 138.469 211.201 138.469C210.374 138.469 209.343 138.122 208.911 137.697C207.8 136.606 207.001 136.739 207.001 138.015C207.001 138.905 207.246 139.058 208.339 138.853C209.476 138.64 209.721 138.823 209.977 140.08C210.318 141.756 210.892 141.93 212.114 140.729C212.891 139.966 213.008 139.966 213.576 140.729C214.344 141.76 215.328 141.798 215.713 140.811ZM249.642 139.892L251.658 139.373L251.302 136.991C251.107 135.68 250.749 134.406 250.507 134.159C250.265 133.912 250.184 133.333 250.328 132.872C250.531 132.217 250.457 132.235 249.987 132.954C249.653 133.466 249.534 134.536 249.719 135.364C249.978 136.519 249.825 136.973 249.04 137.385C248.482 137.678 247.864 137.759 247.667 137.565C247.469 137.371 247.137 137.482 246.929 137.812C246.564 138.393 245.378 138.242 241.669 137.141C240.549 136.809 240.467 136.892 240.817 138.008C241.334 139.657 241.289 139.628 243.55 139.753C244.639 139.814 246.002 139.986 246.578 140.137C247.155 140.288 248.533 140.178 249.642 139.892ZM218.872 139.882C219.119 139.471 219.674 139.004 220.106 138.843C220.673 138.632 220.599 138.541 219.844 138.518C218.237 138.468 217.1 139.327 217.829 140.042C218.274 140.48 218.538 140.44 218.872 139.882ZM270.856 138.708C270.651 137.095 269.699 136.795 269.484 138.275C269.39 138.916 269.676 139.5 270.173 139.688C270.839 139.939 270.986 139.727 270.856 138.708ZM193.897 139.242C193.897 138.72 193.365 138.469 192.26 138.469C190.864 138.469 190.719 138.583 191.276 139.242C191.635 139.666 192.371 140.014 192.912 140.014C193.454 140.014 193.897 139.666 193.897 139.242ZM120.509 139.014C120.509 137.771 120.218 137.646 119.802 138.71C119.64 139.126 119.733 139.603 120.008 139.77C120.284 139.938 120.509 139.597 120.509 139.014ZM302.929 138.984C302.929 138.701 302.693 138.469 302.404 138.469C302.116 138.469 301.88 138.701 301.88 138.984C301.88 139.267 302.116 139.499 302.404 139.499C302.693 139.499 302.929 139.267 302.929 138.984ZM254.059 138.887C253.735 137.933 252.606 137.775 252.606 138.684C252.606 139.132 252.98 139.499 253.436 139.499C253.893 139.499 254.173 139.224 254.059 138.887ZM114.743 137.727C114.743 136.354 113.964 135.566 113.436 136.406C113.009 137.083 113.613 138.984 114.254 138.984C114.523 138.984 114.743 138.419 114.743 137.727ZM280.039 138.126C280.231 137.937 280.388 137.544 280.388 137.251C280.388 136.928 280.144 136.959 279.768 137.328C279.427 137.663 279.27 138.057 279.419 138.203C279.567 138.349 279.847 138.315 280.039 138.126ZM277.767 137.924C277.767 137.624 277.532 137.522 277.243 137.697C276.955 137.872 276.719 138.117 276.719 138.242C276.719 138.367 276.955 138.469 277.243 138.469C277.532 138.469 277.767 138.224 277.767 137.924ZM259.938 137.276C259.93 136.62 256.135 132.291 255.569 132.291C255.381 132.291 255.227 132.856 255.227 133.548C255.227 134.239 254.988 134.95 254.695 135.128C253.758 135.696 254.722 136.425 255.995 136.111C256.937 135.878 257.203 136.012 257.142 136.684C257.087 137.282 257.519 137.612 258.503 137.722C259.358 137.818 259.942 137.637 259.938 137.276ZM198.962 137.149C199.333 136.198 198.346 133.836 197.577 133.836C197.283 133.836 197.042 134.762 197.042 135.895C197.042 137.401 197.257 137.954 197.844 137.954C198.286 137.954 198.789 137.592 198.962 137.149ZM169.128 137.093C169.777 136.648 170.308 136.099 170.308 135.873C170.308 135.174 167.255 134.762 166.265 135.328C165.75 135.623 165.623 135.871 165.983 135.88C166.343 135.888 166.638 136.358 166.638 136.925C166.638 138.146 167.505 138.204 169.128 137.093ZM264.07 136.749C264.391 136.369 264.5 135.907 264.313 135.724C263.92 135.337 262.566 136.317 262.566 136.988C262.566 137.666 263.408 137.532 264.07 136.749ZM177.647 136.183C177.647 135.133 176.619 134.639 175.902 135.344C175.444 135.792 175.487 136.056 176.078 136.423C177.185 137.11 177.647 137.039 177.647 136.183ZM281.867 135.251C281.774 134.614 281.463 134.093 281.175 134.093C280.886 134.093 280.575 134.614 280.483 135.251C280.368 136.048 280.583 136.41 281.175 136.41C281.766 136.41 281.981 136.048 281.867 135.251ZM246.051 135.899C246.228 135.618 246.131 134.981 245.836 134.483C245.541 133.985 245.292 133.849 245.283 134.179C245.275 134.511 245.124 135.147 244.949 135.595C244.604 136.479 245.526 136.733 246.051 135.899ZM262.566 135.123C262.566 134.698 262.183 134.35 261.716 134.35C261.019 134.35 260.983 134.49 261.517 135.123C261.876 135.547 262.259 135.895 262.368 135.895C262.477 135.895 262.566 135.547 262.566 135.123ZM284.582 132.291C284.582 132.008 284.346 131.776 284.058 131.776C283.769 131.776 283.534 132.008 283.534 132.291C283.534 132.574 283.769 132.806 284.058 132.806C284.346 132.806 284.582 132.574 284.582 132.291ZM253.829 132.462C254.021 132.274 254.179 131.782 254.179 131.37C254.179 130.762 254.03 130.741 253.392 131.261C252.96 131.614 252.606 132.106 252.606 132.354C252.606 132.887 253.332 132.952 253.829 132.462ZM256.8 128.687C256.8 128.404 256.564 128.172 256.275 128.172C255.987 128.172 255.751 128.404 255.751 128.687C255.751 128.97 255.987 129.202 256.275 129.202C256.564 129.202 256.8 128.97 256.8 128.687ZM253.982 128.582C254.124 128.357 253.362 128.172 252.287 128.172C251.213 128.172 250.511 128.346 250.727 128.558C251.257 129.078 253.659 129.096 253.982 128.582ZM270.953 126.855C270.953 126.413 270.713 126.198 270.42 126.375C270.127 126.553 270.023 126.914 270.189 127.178C270.638 127.892 270.953 127.759 270.953 126.855ZM145.409 123.024C145.587 122.74 145.497 122.509 145.208 122.509C144.92 122.509 144.538 122.74 144.36 123.024C144.182 123.307 144.272 123.538 144.561 123.538C144.849 123.538 145.23 123.307 145.409 123.024ZM292.969 111.86C292.969 111.602 292.036 110.496 290.896 109.402C289.25 107.824 288.672 107.537 288.092 108.009C287.523 108.473 287.154 108.378 286.415 107.576C285.052 106.096 284.099 106.27 284.283 107.964C284.368 108.742 284.551 109.264 284.691 109.122C284.83 108.981 285.36 109.204 285.869 109.618C286.686 110.284 286.868 110.269 287.448 109.489C288.375 108.244 288.813 108.365 291.018 110.468C292.092 111.492 292.969 112.118 292.969 111.86ZM213.513 110.216C213.714 109.898 214.689 109.637 215.681 109.637C217.485 109.637 218.256 108.484 216.83 107.919C216.469 107.776 217.404 107.641 218.906 107.618C220.923 107.589 221.893 107.309 222.612 106.551C223.179 105.953 224.611 105.386 226.04 105.194C228.187 104.905 228.764 105.048 230.66 106.339C232.521 107.605 233.247 107.793 235.796 107.669C237.43 107.59 239.462 107.796 240.313 108.127C243.857 109.506 245.265 109.597 246.296 108.51C247.273 107.479 247.274 107.479 247.862 108.558C248.554 109.828 249.461 109.982 249.461 108.828C249.461 108.093 249.536 108.093 250.284 108.828C251.215 109.742 252.161 109.863 252.894 109.161C253.184 108.885 254.929 108.849 257.062 109.076C259.08 109.291 261.911 109.381 263.352 109.277C267.064 109.007 267.24 109.008 270.298 109.307C271.863 109.461 273.05 109.368 273.05 109.092C273.05 108.826 272.848 108.608 272.602 108.608C272.356 108.608 271.518 108.028 270.741 107.32C269.945 106.596 268.696 106.033 267.885 106.033C267.093 106.033 266.187 105.78 265.872 105.47C265.458 105.064 265.003 105.064 264.229 105.47C262.689 106.28 259.624 106.163 257.775 105.224C256.898 104.779 255.825 104.548 255.389 104.713C254.953 104.877 253.706 104.519 252.616 103.918C250.645 102.829 248.929 102.784 245.197 103.724C244.209 103.972 242.819 103.618 240.313 102.478C238.386 101.602 235.823 100.732 234.617 100.543C233.411 100.355 231.388 99.6335 230.121 98.94C228.28 97.9324 227.301 97.7275 225.25 97.9211C222.883 98.1446 222.305 97.9453 217.856 95.3736C215.201 93.8393 212.127 91.975 211.025 91.2316C209.922 90.4876 208.209 89.8162 207.217 89.7395C205.35 89.5954 203.304 88.3108 198.951 84.5498C197.469 83.2698 195.88 82.3498 195.15 82.3498C194.461 82.3498 193.897 82.1078 193.897 81.8123C193.897 81.5167 193.493 81.3432 193 81.4261C192.328 81.5394 192.019 81.0874 191.767 79.6205C191.323 77.0272 190.53 76.2528 189.173 77.0854C187.129 78.3385 185.644 77.8679 184.257 75.5279C183.544 74.3247 182.801 72.7065 182.608 71.9327C182.198 70.297 179.466 68.4486 177.458 68.4486C176.651 68.4486 175.812 68.0233 175.428 67.4189C175.015 66.7697 174.206 66.3892 173.237 66.3892C172.392 66.3892 171.291 66.0247 170.79 65.5793C170.288 65.134 169.144 64.6557 168.246 64.5167C166.787 64.2912 166.534 64.4502 165.869 66.0113C164.747 68.6499 163.861 69.153 161.009 68.7689C157.782 68.3343 156.857 67.4786 157.812 65.811C158.786 64.112 159.377 63.7619 160.741 64.077C161.722 64.3035 161.921 64.1341 161.921 63.0704C161.921 62.3125 161.488 61.5639 160.858 61.2329C159.568 60.5548 159.947 59.6893 161.372 60.0554C162.654 60.3844 165.59 59.1503 165.59 58.2833C165.59 57.9275 165.936 57.6366 166.358 57.6366C166.781 57.6366 167.932 56.9416 168.917 56.092C169.902 55.2425 170.913 54.5423 171.163 54.5361C171.413 54.53 172.208 54.0717 172.929 53.5177C173.65 52.9638 174.652 52.5055 175.157 52.4994C175.661 52.4932 176.074 52.2718 176.074 52.0077C176.074 51.7436 176.604 51.3651 177.253 51.1669C177.902 50.9682 179.92 50.1192 181.737 49.28C183.554 48.4407 186.031 47.6824 187.241 47.5948C188.451 47.5073 189.618 47.4141 189.834 47.3873C190.05 47.3611 190.227 46.9785 190.227 46.5373C190.227 45.902 189.602 45.7403 187.213 45.7589C185.556 45.7717 179.009 45.7552 172.667 45.7228C165.411 45.6852 160.002 45.8953 158.081 46.2886C155.492 46.8184 154.893 46.7978 154.149 46.1512C152.767 44.9505 150.752 45.3099 150.389 46.822C150.01 48.399 149.036 48.6271 146.736 47.6772C145.278 47.0748 144.692 47.0625 143.356 47.6072C142.467 47.9691 139.854 48.4243 137.549 48.6184C135.245 48.8125 133.233 49.1713 133.079 49.4164C132.925 49.6615 131.154 50.0069 129.144 50.1846C127.134 50.3617 125.018 50.7092 124.441 50.9558C123.864 51.2024 122.331 51.5216 121.034 51.6648C116.71 52.1426 114.743 52.5956 114.743 53.1151C114.743 53.405 114.178 53.49 113.447 53.3098C112.474 53.0698 112.22 53.1682 112.429 53.7031C112.635 54.2308 112.358 54.3508 111.367 54.1644C110.576 54.0156 110.026 54.1485 110.026 54.4872C110.026 54.8039 109.699 55.0623 109.3 55.0623C108.9 55.0623 108.192 55.6343 107.726 56.333C107.26 57.0316 106.565 57.4858 106.183 57.3411C105.8 57.1969 104.569 57.9054 103.446 58.9155C101.917 60.2902 101.057 60.6974 100.019 60.5368C98.3644 60.2809 97.1635 60.891 97.6866 61.723C97.9608 62.1586 98.2502 62.1674 98.7555 61.7555C99.2346 61.3647 99.5533 61.357 99.7881 61.7302C99.9748 62.0273 100.718 62.2703 101.438 62.2703C102.178 62.2703 102.608 62.4943 102.425 62.7852C102.247 63.0684 102.435 63.3 102.844 63.3C103.253 63.3 104.977 63.992 106.676 64.8379C110.159 66.5735 110.844 66.693 111.441 65.672C111.679 65.2647 113.559 64.6881 115.792 64.337C120.599 63.5817 133.137 63.213 133.869 63.8056C134.493 64.3112 138.394 64.6521 139.133 64.2654C139.413 64.1187 140.294 64.131 141.09 64.2927L142.537 64.5872L140.172 66.0504C137.628 67.6249 137.178 68.4486 138.864 68.4486C139.444 68.4486 140.329 68.6489 140.829 68.894C141.33 69.139 143.107 69.953 144.78 70.7032C146.452 71.4533 147.677 72.2956 147.501 72.5747C146.863 73.589 143.267 73.0746 140.25 71.5367C137.83 70.3036 136.815 70.0545 135.226 70.3042C132.641 70.7104 131.814 71.2428 132.207 72.2493C132.442 72.8496 132.943 72.9825 134.108 72.7539C135.476 72.4851 135.761 72.6293 136.224 73.8258C136.977 75.7714 136.891 76.9983 135.936 77.9369C134.717 79.134 133.728 78.9316 132.067 77.1456C130.878 75.8662 130.391 75.6484 129.64 76.0613C128.529 76.6719 127.004 76.1231 123.885 73.9895C121.985 72.6895 121.259 72.5206 117.127 72.4213L112.498 72.3101L111.525 73.9998C110.622 75.5681 110.616 75.7138 111.437 76.0232C111.924 76.2065 112.403 76.1164 112.503 75.8224C112.603 75.5284 113.014 74.8493 113.417 74.3139C113.978 73.5668 114.294 73.4809 114.772 73.9437C115.231 74.3875 115.726 74.3999 116.642 73.9895C118.092 73.3408 122.082 74.3762 122.082 75.4018C122.082 77.1533 116.463 79.1999 115.567 77.7748C115.011 76.8918 113.497 77.0936 112.553 78.1774C112.085 78.7144 110.487 79.4094 109.003 79.7219C106.796 80.1869 106.028 80.1498 104.784 79.5181C103.948 79.0933 102.544 78.7458 101.665 78.7458C100.785 78.7458 100.066 78.5094 100.066 78.2211C100.066 77.6229 97.5462 78.0919 96.5277 78.8796C95.4651 79.7019 95.7739 80.7939 97.2222 81.335C97.965 81.612 98.908 82.1691 99.319 82.5722C99.7294 82.9753 101.422 83.8042 103.08 84.4138C105.601 85.3416 106.404 85.4317 107.99 84.9658C112.574 83.6194 117.346 84.8226 120.264 88.0611C121.134 89.0259 123.093 90.4753 124.62 91.282C127.747 92.9353 130.149 92.8719 131.789 91.0921C133.513 89.2216 134.823 89.7797 136.792 93.2225C139.296 97.5999 140.906 98.8252 144.155 98.8252C145.98 98.8252 146.842 99.0548 147.054 99.5975C147.22 100.022 147.607 100.37 147.913 100.37C148.22 100.37 148.928 100.775 149.485 101.271C150.314 102.007 151.617 102.189 156.603 102.266C163.702 102.376 168.563 103.188 170.046 104.512C171.394 105.718 175.574 107.431 176.613 107.206C177.055 107.11 179.06 107.403 181.069 107.858C185.282 108.811 184.402 108.775 192.848 108.346C198.729 108.047 199.75 108.128 202.808 109.133C206.838 110.457 212.971 111.078 213.513 110.216ZM278.816 108.644C278.816 108.382 278.419 107.777 277.934 107.3C277.107 106.488 277.009 106.491 276.378 107.339C276.008 107.837 275.828 108.442 275.98 108.683C276.355 109.278 278.816 109.244 278.816 108.644ZM229.427 108.528C229.155 107.726 227.983 107.586 227.941 108.35C227.926 108.633 228.307 108.945 228.788 109.043C229.335 109.154 229.574 108.961 229.427 108.528ZM226.134 108.608C226.313 108.324 226.09 108.093 225.641 108.093C225.192 108.093 224.824 108.324 224.824 108.608C224.824 108.891 225.046 109.122 225.317 109.122C225.589 109.122 225.956 108.891 226.134 108.608ZM266.235 102.977C265.803 102.729 264.034 102.407 262.304 102.262C260.574 102.117 258.479 101.831 257.649 101.627C256.482 101.339 256.194 101.417 256.381 101.97C256.654 102.779 259.857 103.372 264.138 103.405C266.028 103.42 266.75 103.272 266.235 102.977ZM272.751 101.698C272.441 100.482 272.551 100.37 274.054 100.37C275.359 100.37 275.808 100.082 276.239 98.9694C276.891 97.2827 275.832 96.2509 273.446 96.2509C272.242 96.2509 271.836 95.9379 271.383 94.6626C270.825 93.0902 270.789 93.0768 267.872 93.3533C266.251 93.5067 263.552 93.7384 261.875 93.8687C257.772 94.1874 253.586 95.1862 252.516 96.1021C251.986 96.5562 250.323 96.8981 248.304 96.9681C244.739 97.0917 243.695 97.4485 243.695 98.5431C243.695 99.4266 245.224 100.009 245.989 99.4173C246.84 98.7598 251.388 99.076 252.349 99.8596C252.976 100.37 253.436 100.389 254.328 99.9409C254.967 99.6202 256.307 99.2253 257.308 99.0641C258.308 98.9025 259.224 98.6754 259.343 98.5585C259.462 98.4422 259.965 98.5601 260.462 98.8216C260.959 99.0827 262.991 99.5517 264.979 99.8637C267.054 100.189 269.039 100.831 269.641 101.371C270.219 101.888 271.231 102.472 271.891 102.669C272.974 102.991 273.058 102.897 272.751 101.698ZM211.195 99.821C211.195 99.0471 210.1 97.0953 209.413 96.6448C209.096 96.4368 207.361 96.2633 205.56 96.2587C203.116 96.253 202.284 96.4316 202.284 96.963C202.284 97.8573 204.942 98.4015 205.821 97.6874C206.789 96.9017 209.622 98.1806 209.622 99.4024C209.622 99.9347 209.976 100.37 210.409 100.37C210.841 100.37 211.195 100.123 211.195 99.821ZM190.096 97.9582C191.029 97.6045 190.913 96.9388 189.62 95.2207C188.425 93.6339 187.606 93.6231 187.606 95.1944C187.606 96.4347 189.263 98.2743 190.096 97.9582ZM78.7486 92.3035C79.5663 91.5009 79.0788 90.5242 78.0247 90.8527C77.4344 91.037 76.6676 90.97 76.3211 90.7044C75.3796 89.9825 73.3704 89.5954 73.0674 90.0768C72.3907 91.1518 77.7736 93.2617 78.7486 92.3035ZM241.313 89.3153C243.031 88.3885 244.526 87.3676 244.635 87.0463C244.744 86.725 245.063 86.602 245.344 86.7724C245.979 87.158 248.937 85.9986 248.937 85.3638C248.937 85.1079 249.49 84.6919 250.166 84.4396C250.841 84.1873 251.696 83.2662 252.064 82.393C252.432 81.5198 253.067 80.8052 253.475 80.8052C254.81 80.8052 256.693 79.2344 257.054 77.8175C257.403 76.4485 260.271 73.4644 261.787 72.8934C263.193 72.3636 262.685 71.1321 261.124 71.2824C258.236 71.5614 257.397 72.0763 257.494 73.5097C257.571 74.6454 257.363 74.872 256.217 74.8983C255.464 74.9158 254.09 75.5573 253.163 76.3234C252.236 77.0895 251.142 77.7161 250.731 77.7161C250.321 77.7161 249.985 78.0636 249.985 78.4883C249.985 78.9131 249.631 79.2606 249.199 79.2606C248.707 79.2606 248.413 78.7725 248.413 77.9575C248.413 77.2403 248.766 76.5206 249.199 76.3579C249.631 76.1947 249.985 75.8497 249.985 75.5907C249.985 75.3318 250.634 74.1568 251.427 72.9799C252.522 71.354 252.888 70.1512 252.949 67.9708C253.056 64.1526 253.643 61.6201 254.577 60.9492C254.997 60.6475 255.256 59.9669 255.152 59.4366C254.985 58.585 254.735 58.6699 252.998 60.1676C251.261 61.6659 251.033 62.1396 251.026 64.2546C251.017 66.8999 250.787 67.3803 249.084 68.3148C248.082 68.8641 247.844 68.8152 247.38 67.9626C247.083 67.4174 246.84 66.5689 246.84 66.0767C246.84 64.6799 245.079 61.2684 244.35 61.254C243.989 61.2468 243.695 60.9368 243.695 60.5651C243.695 59.7444 240.603 57.4121 240.13 57.8765C239.945 58.0588 240.028 58.3687 240.313 58.5654C241.208 59.1817 242.122 61.7272 242.122 63.5982C242.122 67.3036 239.462 70.854 235.832 71.9929C229.191 74.0765 227.323 74.5553 226.642 74.3468C226.219 74.2176 225.46 73.9627 224.955 73.7805C224.45 73.5987 223.377 73.5014 222.57 73.5648C221.762 73.6281 220.75 73.3933 220.32 73.0427C219.738 72.568 219.386 72.5541 218.945 72.9876C218.503 73.4216 217.905 73.2996 216.608 72.5119C215.642 71.926 214.864 71.7066 214.864 72.0202C214.864 72.777 212.656 72.2663 209.36 70.748C207.919 70.0833 206.087 69.2992 205.29 69.0042C203.901 68.4903 203.856 68.5238 204.187 69.8202C204.621 71.5203 205.936 72.8218 208.592 74.181C209.735 74.767 210.671 75.4538 210.671 75.7086C210.671 75.963 211.106 76.1715 211.638 76.1715C212.17 76.1715 213.02 76.622 213.527 77.1724C214.034 77.7227 214.955 78.2443 215.574 78.3308C217.266 78.5676 217.1 80.5478 215.388 80.5478C214.668 80.5478 213.918 80.2002 213.722 79.7755C213.43 79.1432 213.359 79.1669 213.328 79.9042C213.283 81.024 211.076 81.1332 210.17 80.0607C209.711 79.5181 208.698 79.3693 206.436 79.5124C204.404 79.6411 203.332 79.5129 203.332 79.1417C203.332 78.8292 203.188 78.7154 203.013 78.8879C202.283 79.604 204.951 82.1984 207.101 82.8636C208.344 83.2477 210.776 84.3603 212.505 85.336C214.235 86.3116 216.544 87.2291 217.636 87.3748C218.839 87.5349 219.829 88.0189 220.147 88.6032C220.532 89.3101 221.018 89.4821 221.969 89.2473C222.704 89.0661 223.604 89.2036 224.047 89.5655C224.545 89.9707 225.568 90.0876 226.856 89.8852C228.072 89.6942 229.904 89.8713 231.44 90.329C235.309 91.4823 237.765 91.23 241.313 89.3153ZM194.945 85.1655C194.945 84.3356 193.55 83.5484 193.013 84.0756C192.64 84.4427 193.824 85.9538 194.485 85.9538C194.738 85.9538 194.945 85.599 194.945 85.1655ZM69.9249 85.4389C70.1031 85.1557 69.8672 84.9241 69.4007 84.9241C68.9341 84.9241 68.6983 85.1557 68.8765 85.4389C69.0547 85.7221 69.2906 85.9538 69.4007 85.9538C69.5108 85.9538 69.7466 85.7221 69.9249 85.4389ZM232.818 83.5999C233.79 83.0819 234.259 82.4177 234.259 81.561C234.259 80.8624 234.199 80.2903 234.125 80.2903C234.051 80.2903 233.234 80.5035 232.31 80.7635C231.143 81.0925 229.783 81.0158 227.858 80.5123C224.39 79.6056 220.652 79.5968 219.451 80.4922C218.946 80.8685 218.534 81.2876 218.534 81.4241C218.534 81.8406 222.295 82.7725 225.486 83.1463C227.148 83.3409 228.636 83.7044 228.793 83.9546C229.223 84.6383 231.194 84.4648 232.818 83.5999ZM89.32 83.3795C89.5029 82.8132 90.1084 82.3498 90.6656 82.3498C91.2228 82.3498 91.6789 82.0161 91.6789 81.6079C91.6789 80.9813 91.475 80.9705 90.3647 81.5358C88.8603 82.3024 86.7504 82.0537 85.8645 81.0055C85.5322 80.6121 84.9178 80.2903 84.4995 80.2903C83.4281 80.2903 83.8647 81.8658 85.1265 82.5521C85.7031 82.8657 86.3636 83.4114 86.5942 83.7656C87.2452 84.7655 88.9505 84.524 89.32 83.3795ZM188.655 82.0923C188.655 81.6676 188.301 81.3201 187.868 81.3201C187.436 81.3201 187.082 81.6676 187.082 82.0923C187.082 82.5171 187.436 82.8646 187.868 82.8646C188.301 82.8646 188.655 82.5171 188.655 82.0923ZM238.429 81.6053C238.897 81.0523 239.393 80.9859 240.363 81.3479C241.08 81.6156 242.042 81.8349 242.5 81.8349C243.231 81.8349 243.221 81.7129 242.413 80.8356C241.653 80.0113 241.02 79.8836 238.793 80.1071C234.902 80.4968 234.528 80.6554 235.313 81.5837C236.135 82.5573 237.616 82.5676 238.429 81.6053ZM246.316 80.5478C246.711 80.0803 246.753 79.7755 246.423 79.7755C246.123 79.7755 245.563 79.6622 245.179 79.5237C244.795 79.3847 244.127 79.5005 243.695 79.7811C242.996 80.2337 242.996 80.3465 243.695 80.7975C244.804 81.5126 245.562 81.4405 246.316 80.5478ZM155.106 80.5854C155.106 80.1081 154.658 79.7755 154.014 79.7755C152.737 79.7755 152.917 80.9787 154.232 81.2289C154.75 81.3278 155.106 81.0652 155.106 80.5854ZM139.905 80.8052C139.905 80.522 139.669 80.2903 139.38 80.2903C139.092 80.2903 138.856 80.522 138.856 80.8052C138.856 81.0884 139.092 81.3201 139.38 81.3201C139.669 81.3201 139.905 81.0884 139.905 80.8052ZM146.894 80.4618C147.086 80.2734 147.243 79.7189 147.243 79.2297C147.243 77.7073 144.198 77.1296 143.089 78.442C142.603 79.0176 142.722 79.3373 143.666 79.9866C144.91 80.8423 146.298 81.0467 146.894 80.4618ZM92.7273 79.2606C92.7273 78.9775 92.4914 78.7458 92.2031 78.7458C91.9148 78.7458 91.6789 78.9775 91.6789 79.2606C91.6789 79.5438 91.9148 79.7755 92.2031 79.7755C92.4914 79.7755 92.7273 79.5438 92.7273 79.2606ZM212.767 78.4724C212.767 77.6393 211.948 77.4499 211.491 78.1768C211.331 78.4307 211.553 78.7705 211.984 78.9332C212.46 79.1124 212.767 78.9316 212.767 78.4724ZM208.202 77.4741C209.379 76.6287 209.337 76.1715 208.081 76.1715C207.521 76.1715 206.924 75.9501 206.753 75.6793C206.583 75.4085 206.103 75.3148 205.688 75.4718C204.516 75.9135 203.406 74.4791 203.71 72.9155C203.912 71.8812 203.767 71.5378 203.131 71.5378C202.57 71.5378 202.284 71.9857 202.284 72.8615C202.284 74.2845 202.593 74.666 205.45 76.7584C207.005 77.8983 207.45 78.0142 208.202 77.4741ZM108.977 76.6863C108.977 76.4032 108.623 76.1715 108.191 76.1715C107.758 76.1715 107.405 76.4032 107.405 76.6863C107.405 76.9695 107.758 77.2012 108.191 77.2012C108.623 77.2012 108.977 76.9695 108.977 76.6863ZM174.294 75.7853C174.902 73.851 175.457 73.3428 176.8 73.4881C177.784 73.5946 178.171 73.3969 178.171 72.7883C178.171 72.1695 177.853 72.0171 176.991 72.223C176.342 72.378 175.239 72.1994 174.54 71.8261C173.652 71.3519 172.782 71.2855 171.657 71.6068C170.771 71.8596 169.067 71.9244 167.87 71.7509C165.973 71.4765 165.649 71.5743 165.346 72.5119C164.919 73.834 165.365 74.6259 166.538 74.6305C167.026 74.632 168.132 75.0939 168.997 75.6566C171 76.9597 173.902 77.0303 174.294 75.7853ZM159.839 75.1212L160.905 73.6507L159.851 73.0968C159.271 72.792 158.223 72.6839 157.521 72.8568C156.61 73.0818 155.916 72.8476 155.09 72.0367C154.207 71.1691 153.836 71.0574 153.517 71.5635C152.889 72.5629 154.468 74.5486 156.754 75.6335L158.773 76.5916L159.839 75.1212ZM106.074 72.8146C105.996 70.2043 105.392 69.2811 104.085 69.7739C102.961 70.1981 102.984 70.5894 104.213 71.8853C104.764 72.466 105.177 73.3537 105.131 73.8577C105.084 74.3613 105.293 74.8601 105.595 74.9657C105.932 75.0836 106.117 74.2526 106.074 72.8146ZM128.45 72.4388C127.34 70.7094 125.227 69.8629 125.227 71.1475C125.227 71.9213 127.961 74.1121 128.927 74.1121C129.276 74.1121 129.077 73.416 128.45 72.4388ZM200.449 71.0229C200.271 70.7397 199.889 70.5081 199.601 70.5081C199.312 70.5081 199.222 70.7397 199.401 71.0229C199.579 71.3061 199.96 71.5378 200.249 71.5378C200.537 71.5378 200.627 71.3061 200.449 71.0229ZM193.372 71.0229C193.372 70.7397 193.004 70.5081 192.555 70.5081C192.106 70.5081 191.884 70.7397 192.062 71.0229C192.24 71.3061 192.608 71.5378 192.879 71.5378C193.151 71.5378 193.372 71.3061 193.372 71.0229ZM123.437 68.8348C122.959 68.1974 122.431 67.2706 122.264 66.7753C121.865 65.5937 120.95 65.636 119.461 66.9041C118.796 67.4704 117.993 67.9518 117.677 67.9739C116.829 68.0326 122.176 69.9067 123.325 69.953C124.252 69.9911 124.258 69.9283 123.437 68.8348ZM152.84 68.654C153.199 67.7361 152.212 66.9241 150.723 66.9118C149.892 66.9051 149.799 66.6358 150.093 65.0954C150.521 62.8557 149.696 62.4104 146.872 63.3587C145.779 63.7258 144.708 63.9786 144.491 63.9204C144.275 63.8623 144.098 64.0419 144.098 64.32C144.098 64.5975 144.747 64.9646 145.54 65.135C148.011 65.6674 148.292 65.8198 148.292 66.6307C148.292 68.7086 152.148 70.4246 152.84 68.654ZM130.862 67.8437C132.819 66.6559 132.914 66.3387 131.649 65.2297C130.219 63.976 127.016 63.8293 127.489 65.0392C127.642 65.4295 127.525 65.9855 127.231 66.2744C126.463 67.0287 127.231 68.9712 128.276 68.9207C128.762 68.8976 129.925 68.4126 130.862 67.8437ZM92.4652 67.9338C92.6434 67.6506 92.5391 67.4189 92.234 67.4189C91.9289 67.4189 91.6789 67.6506 91.6789 67.9338C91.6789 68.2169 91.7827 68.4486 91.91 68.4486C92.0374 68.4486 92.2869 68.2169 92.4652 67.9338ZM202.808 66.9648C202.808 66.6816 202.572 66.3068 202.284 66.1318C201.995 65.9567 201.759 66.0453 201.759 66.3284C201.759 66.6116 201.995 66.9864 202.284 67.1615C202.572 67.3365 202.808 67.248 202.808 66.9648ZM201.235 64.3601C201.235 64.0934 200.999 63.7325 200.711 63.5575C200.423 63.3824 200.187 63.6007 200.187 64.042C200.187 64.4832 200.423 64.8446 200.711 64.8446C200.999 64.8446 201.235 64.6268 201.235 64.3601ZM157.727 62.7852C157.727 62.502 157.359 62.2703 156.91 62.2703C156.461 62.2703 156.238 62.502 156.417 62.7852C156.595 63.0684 156.962 63.3 157.234 63.3C157.505 63.3 157.727 63.0684 157.727 62.7852ZM239.501 57.1217C239.501 56.8386 239.265 56.6069 238.977 56.6069C238.689 56.6069 238.453 56.8386 238.453 57.1217C238.453 57.4049 238.689 57.6366 238.977 57.6366C239.265 57.6366 239.501 57.4049 239.501 57.1217ZM195.993 44.7652C196.604 44.3775 196.45 44.2642 195.307 44.2581C194.457 44.2534 193.971 44.4681 194.159 44.7652C194.561 45.4046 194.986 45.4046 195.993 44.7652Z" fill="#8A6E5B" fill-opacity="0.7"/>
</svg>
